<svg xmlns="http://www.w3.org/2000/svg" width="1032" height="1016" viewBox="0 0 1032 1016">
<g>
<path d="M 550.50 644.00 C543.02,645.45 513.22,646.10 506.50,644.96 C495.39,643.09 491.04,641.95 481.00,638.29 C475.23,636.18 468.92,633.45 467.00,632.23 C465.08,631.01 462.99,630.01 462.38,630.00 C461.26,630.00 451.96,625.14 451.00,624.06 C450.73,623.75 449.32,622.89 447.89,622.15 C446.45,621.41 444.18,619.84 442.85,618.65 C437.66,614.03 430.11,608.00 429.51,608.00 C429.17,608.00 429.20,608.56 429.59,609.25 C429.97,609.94 428.20,608.49 425.64,606.04 C423.09,603.59 421.00,601.37 421.00,601.10 C421.00,600.84 422.35,601.92 424.00,603.50 C425.65,605.08 427.00,605.93 427.00,605.40 C427.00,604.86 424.98,602.43 422.50,600.00 C420.02,597.57 418.00,595.21 418.00,594.75 C418.00,594.29 416.85,592.69 415.45,591.21 C412.27,587.83 403.28,573.13 401.02,567.62 C397.03,557.84 394.71,553.06 394.12,553.42 C393.78,553.64 393.47,552.61 393.44,551.15 C393.40,549.69 392.14,542.89 390.65,536.04 C385.87,514.24 386.07,498.95 391.41,477.00 C393.92,466.70 397.37,456.48 399.01,454.50 C399.46,453.95 400.73,451.25 401.81,448.50 C404.03,442.90 411.03,431.01 414.70,426.61 C416.02,425.02 416.86,423.08 416.56,422.31 C416.27,421.53 416.42,421.14 416.90,421.44 C418.19,422.23 426.21,413.15 425.39,411.82 C424.99,411.18 425.14,410.97 425.71,411.32 C426.79,411.99 430.36,408.70 429.50,407.83 C429.22,407.55 429.97,406.46 431.17,405.41 C432.36,404.36 433.01,404.06 432.61,404.75 C431.17,407.23 433.81,405.92 438.36,401.91 C440.92,399.66 442.82,397.53 442.60,397.16 C442.38,396.80 443.26,396.44 444.57,396.36 C445.87,396.28 448.64,394.90 450.72,393.29 C456.46,388.84 461.52,386.00 463.70,386.00 C464.77,386.00 467.65,384.68 470.08,383.08 C472.51,381.47 475.85,379.85 477.50,379.49 C479.15,379.12 483.20,377.90 486.50,376.79 C497.57,373.06 504.41,371.97 520.76,371.34 C539.82,370.61 553.33,372.36 564.50,377.01 C565.60,377.47 567.85,378.13 569.50,378.48 C571.15,378.83 574.53,380.15 577.00,381.41 C579.47,382.68 583.26,384.29 585.42,384.99 C589.68,386.38 595.34,389.39 598.50,391.96 C599.60,392.86 601.77,394.23 603.33,395.01 C604.88,395.78 606.59,397.23 607.11,398.21 C607.64,399.19 608.63,400.00 609.32,400.00 C610.87,400.00 621.41,410.09 629.89,419.68 C637.13,427.87 646.00,441.23 646.00,443.93 C646.00,444.93 646.68,446.32 647.51,447.01 C648.56,447.88 648.72,448.64 648.02,449.47 C647.47,450.14 647.31,450.98 647.68,451.34 C648.04,451.70 637.74,452.00 624.79,452.00 L 601.24 452.00 L 597.37 447.29 C595.24,444.70 593.01,441.66 592.42,440.54 C591.82,439.42 590.82,438.61 590.18,438.75 C589.55,438.88 587.33,437.43 585.26,435.53 C583.19,433.63 580.27,431.04 578.77,429.78 C576.52,427.90 575.94,426.44 575.49,421.53 C574.93,415.45 573.07,411.35 570.41,410.33 C568.11,409.44 560.06,412.07 558.58,414.19 C557.28,416.05 556.88,416.06 542.87,414.44 C522.35,412.07 508.83,412.99 496.83,417.56 C487.67,421.06 481.42,424.33 474.63,429.19 C472.49,430.72 470.36,431.72 469.88,431.42 C469.39,431.13 469.00,431.33 469.00,431.87 C469.00,433.50 465.73,433.70 461.64,432.32 C456.67,430.64 450.52,431.61 447.31,434.59 C444.40,437.28 444.59,438.28 449.56,446.53 C452.26,451.01 452.57,451.93 450.87,450.45 C449.65,449.38 449.00,449.09 449.43,449.81 C449.87,450.56 449.56,451.85 448.71,452.81 C447.90,453.74 445.74,457.20 443.92,460.50 C442.09,463.80 440.20,466.78 439.70,467.12 C438.84,467.72 436.67,475.66 433.33,490.50 C431.22,499.83 431.23,519.40 433.34,528.00 C437.55,545.16 441.60,554.98 443.88,553.57 C444.22,553.37 444.60,554.53 444.72,556.17 C444.94,559.34 452.55,569.40 454.02,568.48 C454.49,568.20 455.19,568.49 455.59,569.14 C456.04,569.87 455.88,570.04 455.15,569.60 C454.52,569.20 454.00,569.32 454.00,569.86 C454.00,572.02 469.75,585.99 475.75,589.14 C476.99,589.79 478.00,590.73 478.00,591.22 C478.00,591.71 478.45,591.84 479.00,591.50 C479.55,591.16 480.00,591.28 480.00,591.76 C480.00,592.24 482.48,593.66 485.51,594.91 C491.35,597.34 491.40,597.41 492.43,606.36 C493.07,611.92 497.28,620.29 500.84,623.09 C505.23,626.54 514.80,624.72 512.43,620.89 C511.96,620.13 512.12,619.95 512.85,620.40 C514.11,621.19 514.28,620.37 514.02,614.75 C513.80,610.04 516.17,608.73 519.00,612.00 C520.92,614.21 520.99,615.99 519.60,626.48 C519.46,627.57 520.21,629.93 521.27,631.73 C522.96,634.59 523.72,635.00 527.38,635.00 C531.49,635.00 536.00,632.85 536.00,630.88 C536.00,630.33 535.48,630.20 534.85,630.60 C534.12,631.04 533.96,630.87 534.41,630.14 C534.81,629.49 535.51,629.19 535.96,629.47 C538.89,631.29 541.23,620.71 539.93,611.54 C538.83,603.71 539.13,603.10 544.67,602.00 C552.79,600.37 563.67,595.83 563.31,594.21 C563.21,593.74 564.51,593.57 566.20,593.82 C568.35,594.13 569.55,593.78 570.19,592.63 C570.69,591.74 571.50,591.00 572.00,591.00 C574.19,591.00 582.03,584.72 581.77,583.16 C581.61,582.19 582.07,581.62 582.87,581.79 C585.00,582.24 589.23,579.04 588.61,577.44 C588.32,576.66 588.39,576.07 588.79,576.13 C590.63,576.41 591.91,575.80 594.59,573.38 C596.19,571.94 596.94,571.07 596.26,571.43 C595.44,571.88 595.22,571.59 595.62,570.56 C595.94,569.71 596.61,569.26 597.10,569.56 C597.60,569.87 598.00,569.61 598.00,569.00 C598.00,568.39 598.45,568.16 599.00,568.50 C599.90,569.05 600.42,566.85 600.26,563.18 C600.23,562.46 600.46,562.12 600.77,562.44 C601.87,563.54 604.93,559.71 607.95,553.45 C609.63,549.97 611.45,546.84 612.00,546.50 C614.02,545.25 612.91,542.41 609.75,540.73 C607.07,539.31 603.25,538.96 588.00,538.75 L 569.50 538.50 L 569.19 534.84 C568.90,531.33 569.98,528.54 576.20,516.69 C577.30,514.59 577.96,511.96 577.67,510.84 C577.38,509.72 577.39,509.06 577.70,509.37 C578.35,510.02 582.00,505.66 582.00,504.23 C582.00,502.24 586.23,498.00 588.32,497.88 C590.00,497.79 589.81,497.59 587.50,497.00 C585.85,496.58 602.50,496.27 624.50,496.30 C646.50,496.34 660.67,496.65 656.00,497.00 L 647.50 497.63 L 654.64 497.81 C660.11,497.96 661.93,498.37 662.39,499.58 C662.73,500.45 663.00,505.34 663.00,510.45 C663.00,520.30 661.24,532.48 657.95,545.31 C656.85,549.60 656.26,553.61 656.63,554.21 C657.00,554.82 656.90,555.06 656.40,554.76 C655.26,554.06 653.60,555.93 653.17,558.39 C652.99,559.43 651.77,562.35 650.46,564.89 C649.15,567.43 647.35,571.03 646.46,572.89 C645.58,574.75 643.09,578.67 640.93,581.60 C637.17,586.68 635.66,590.95 638.15,589.40 C638.88,588.96 639.04,589.13 638.59,589.86 C638.19,590.51 637.51,590.82 637.08,590.55 C636.65,590.28 634.77,591.95 632.90,594.25 C631.03,596.54 626.64,601.22 623.14,604.63 C619.65,608.05 617.07,611.30 617.41,611.85 C617.75,612.41 617.51,613.19 616.86,613.59 C616.13,614.04 615.96,613.88 616.40,613.15 C618.45,609.85 611.56,613.94 605.19,619.82 C602.60,622.22 601.39,623.96 602.14,624.21 C602.98,624.49 602.81,624.86 601.65,625.31 C600.60,625.71 600.14,625.58 600.51,624.99 C600.84,624.44 600.25,624.00 599.18,624.00 C596.89,624.00 594.56,626.48 595.47,627.94 C595.85,628.56 595.48,628.74 594.54,628.38 C593.68,628.05 592.31,628.33 591.49,629.01 C590.67,629.69 590.00,630.00 590.00,629.70 C590.00,629.40 586.29,630.97 581.75,633.19 C571.47,638.22 569.34,639.04 565.14,639.58 C563.29,639.82 560.59,640.65 559.14,641.43 C557.69,642.21 553.80,643.37 550.50,644.00 ZM 531.20 626.08 C529.45,628.13 526.50,628.62 525.52,627.04 C525.20,626.51 525.84,625.16 526.95,624.05 C528.61,622.39 528.86,621.23 528.35,617.54 C528.01,615.07 527.39,613.26 526.96,613.52 C526.53,613.79 526.43,613.09 526.72,611.97 C527.38,609.43 524.67,606.31 520.15,604.42 C512.52,601.23 507.45,603.60 506.21,610.92 C505.22,616.83 503.42,617.15 501.01,611.84 C498.28,605.81 498.43,601.86 501.50,599.19 C503.28,597.64 504.00,596.00 504.00,593.51 C504.00,591.58 504.41,590.00 504.90,590.00 C505.40,590.00 506.27,588.65 506.85,587.00 C507.43,585.35 508.26,584.00 508.71,584.00 C509.15,584.00 510.06,583.13 510.73,582.06 C512.16,579.77 510.50,573.57 508.75,574.66 C508.15,575.02 507.98,574.84 508.36,574.23 C508.73,573.63 508.08,570.75 506.92,567.82 C504.51,561.77 502.71,552.62 502.60,546.00 C502.53,541.16 503.88,534.47 507.65,521.00 C508.96,516.33 510.24,510.02 510.48,507.00 C510.82,502.88 510.72,502.25 510.08,504.50 C509.29,507.32 509.23,507.35 509.10,505.00 C509.03,503.62 508.56,501.85 508.05,501.05 C507.11,499.57 507.05,499.72 505.45,507.75 C504.65,511.76 498.25,523.84 494.36,528.67 C490.58,533.36 490.26,534.22 492.66,533.30 C493.83,532.85 494.10,533.03 493.56,533.90 C493.14,534.58 492.23,534.92 491.55,534.66 C490.86,534.39 489.64,534.94 488.83,535.88 C486.16,539.01 485.82,540.00 487.44,540.00 C488.30,540.00 488.89,539.49 488.75,538.88 C488.61,538.26 489.07,537.54 489.76,537.29 C490.72,536.94 490.78,537.45 490.01,539.48 C488.72,542.87 488.74,543.28 490.15,542.40 C490.88,541.96 491.04,542.13 490.59,542.86 C490.19,543.51 489.44,543.77 488.92,543.45 C488.41,543.13 487.68,543.69 487.32,544.69 C486.95,545.68 486.21,546.79 485.67,547.16 C484.09,548.21 469.27,543.06 468.01,541.02 C466.59,538.72 469.91,529.70 471.96,530.28 C472.38,530.40 474.03,529.22 475.61,527.65 C480.03,523.30 488.32,517.00 489.64,517.00 C490.29,517.00 492.05,515.54 493.56,513.75 C495.06,511.96 496.34,510.70 496.40,510.95 C496.45,511.20 497.51,510.54 498.75,509.48 C500.80,507.73 501.00,506.68 501.00,497.84 C501.00,491.57 500.59,487.86 499.85,487.40 C499.08,486.93 498.96,487.13 499.50,488.00 C500.02,488.85 499.92,489.07 499.20,488.62 C498.59,488.24 498.34,487.27 498.65,486.46 C499.36,484.63 492.72,481.63 489.36,482.27 C488.10,482.51 487.27,482.38 487.52,481.97 C487.77,481.56 485.40,479.96 482.24,478.40 C479.08,476.85 475.70,474.77 474.72,473.79 C473.05,472.13 469.00,463.80 469.00,462.04 C469.00,460.95 466.32,455.15 464.14,451.50 C462.60,448.92 459.97,446.90 456.64,445.73 C456.16,445.56 455.65,444.27 455.49,442.87 C455.24,440.62 455.52,440.37 457.86,440.74 C459.94,441.07 460.18,440.93 459.00,440.09 C458.08,439.44 457.96,439.02 458.69,439.02 C459.35,439.01 460.16,439.45 460.50,440.00 C461.41,441.47 463.25,441.22 462.39,439.75 C461.99,439.06 462.63,439.36 463.83,440.40 C465.02,441.45 466.00,443.12 466.00,444.10 C466.00,445.09 467.35,447.90 469.00,450.34 C470.65,452.79 472.00,455.34 472.00,456.00 C472.00,457.86 479.82,467.27 483.09,469.35 C484.69,470.36 486.00,471.55 486.00,471.98 C486.00,472.42 488.13,473.09 490.74,473.48 C493.34,473.87 496.76,474.86 498.34,475.68 C500.99,477.05 501.35,477.00 503.12,475.10 C505.10,472.97 505.07,470.74 502.97,463.00 C502.44,461.08 502.01,458.55 502.01,457.40 C502.00,454.61 507.70,448.67 509.66,449.42 C510.49,449.74 512.27,450.00 513.61,450.00 C517.06,450.00 521.99,455.73 525.01,463.24 C526.81,467.73 528.29,469.85 530.28,470.81 C532.83,472.03 533.34,471.90 536.92,469.07 C539.05,467.38 541.72,466.00 542.86,466.00 C544.00,466.00 545.39,465.13 545.96,464.07 C546.53,463.00 547.90,461.85 549.00,461.50 C550.10,461.15 551.00,460.44 551.00,459.91 C551.00,459.39 552.09,457.28 553.43,455.23 C554.87,453.01 556.13,449.17 556.54,445.75 C557.29,439.54 557.83,438.90 559.77,442.00 C561.11,444.15 560.48,451.54 558.78,453.71 C557.59,455.22 551.00,467.80 551.00,468.56 C551.00,468.87 551.56,468.79 552.25,468.39 C552.94,467.99 552.64,468.63 551.60,469.83 C549.47,472.25 548.05,472.85 550.00,470.50 C551.80,468.34 550.38,468.66 546.96,471.19 C545.33,472.39 544.00,473.91 544.00,474.57 C544.00,475.22 543.33,476.32 542.50,477.00 C540.59,478.58 540.59,483.32 542.49,489.59 C543.31,492.29 544.00,495.40 544.02,496.50 C544.05,497.60 544.94,500.30 546.00,502.50 C547.06,504.70 547.95,507.04 547.97,507.70 C548.03,509.98 554.64,513.99 559.43,514.65 C562.08,515.01 564.41,515.92 564.71,516.70 C565.49,518.72 562.97,529.78 561.44,531.05 C558.34,533.62 546.36,526.70 543.99,520.98 C543.31,519.34 542.36,518.00 541.88,518.00 C541.40,518.00 541.00,517.12 541.00,516.03 C541.00,514.95 540.35,512.59 539.56,510.78 C538.76,508.98 537.84,505.81 537.51,503.75 C537.18,501.69 536.51,500.00 536.02,500.00 C535.54,500.00 534.97,498.99 534.76,497.75 C534.55,496.50 534.02,498.02 533.58,501.18 C532.61,508.13 534.09,519.50 538.82,541.50 C541.61,554.46 542.27,559.96 541.21,561.31 C540.69,561.97 539.99,565.41 539.63,568.96 C538.97,575.58 538.18,577.21 535.46,577.61 C533.76,577.86 530.08,570.74 527.91,563.00 C527.15,560.31 526.49,559.21 526.25,560.25 C525.71,562.65 524.00,562.46 524.00,560.00 C524.00,558.90 524.40,558.00 524.89,558.00 C526.04,558.00 526.95,550.81 525.97,549.50 C525.55,548.95 524.99,547.60 524.72,546.50 C524.36,545.01 524.17,545.27 523.98,547.50 L 523.74 550.50 L 522.26 543.50 L 522.01 547.50 C521.77,551.42 521.75,551.44 521.00,548.50 C520.25,545.56 520.23,545.58 520.00,549.50 C519.87,551.70 519.87,553.95 520.01,554.50 C522.94,566.58 527.59,579.92 531.11,586.32 C532.81,589.41 533.38,592.97 534.13,605.08 C535.09,620.45 534.91,621.75 531.20,626.08 ZM 565.78 424.75 C564.30,426.56 563.00,426.28 563.00,424.17 C563.00,421.62 563.98,420.90 565.51,422.31 C566.41,423.14 566.49,423.88 565.78,424.75 ZM 562.33 432.57 C561.25,435.39 558.94,433.93 559.73,430.92 C560.12,429.43 560.56,429.22 561.56,430.05 C562.29,430.65 562.63,431.79 562.33,432.57 ZM 529.00 570.43 C529.00,571.25 527.71,571.10 526.12,570.10 C525.36,569.62 525.06,568.72 525.44,568.10 C525.92,567.31 526.55,567.41 527.56,568.42 C528.35,569.21 529.00,570.11 529.00,570.43 ZM 511.00 580.00 C511.00,580.55 510.52,581.00 509.94,581.00 C509.36,581.00 509.16,580.55 509.50,580.00 C509.84,579.45 510.32,579.00 510.56,579.00 C510.80,579.00 511.00,579.45 511.00,580.00 ZM 430.50 407.00 C430.16,407.55 430.36,408.00 430.94,408.00 C431.52,408.00 432.00,407.55 432.00,407.00 C432.00,406.45 431.80,406.00 431.56,406.00 C431.32,406.00 430.84,406.45 430.50,407.00 ZM 427.50 607.00 C427.84,607.55 428.32,608.00 428.56,608.00 C428.80,608.00 429.00,607.55 429.00,607.00 C429.00,606.45 428.52,606.00 427.94,606.00 C427.36,606.00 427.16,606.45 427.50,607.00 ZM 510.00 577.00 C510.00,577.55 509.80,578.00 509.56,578.00 C509.32,578.00 508.84,577.55 508.50,577.00 C508.16,576.45 508.36,576.00 508.94,576.00 C509.52,576.00 510.00,576.45 510.00,577.00 ZM 570.25 411.34 C570.94,411.62 570.38,411.84 569.00,411.84 C567.62,411.84 567.06,411.62 567.75,411.34 C568.44,411.06 569.56,411.06 570.25,411.34 Z" fill="rgb(81,79,197)"/>
<path d="M 531.20 626.08 C534.91,621.75 535.09,620.45 534.13,605.08 C533.38,592.97 532.81,589.41 531.11,586.32 C527.59,579.92 522.94,566.58 520.01,554.50 C519.87,553.95 519.87,551.70 520.00,549.50 C520.23,545.58 520.25,545.56 521.00,548.50 C521.75,551.44 521.77,551.42 522.01,547.50 L 522.26 543.50 L 523.44 549.10 C523.27,548.36 523.11,547.63 522.97,547.00 C522.33,543.96 522.21,544.30 522.11,549.58 C522.05,552.93 522.29,555.95 522.64,556.31 C523.99,557.66 525.13,555.66 524.44,553.14 C524.25,552.45 524.00,551.45 523.75,550.39 L 523.98 547.50 C524.17,545.27 524.36,545.01 524.72,546.50 C524.99,547.60 525.55,548.95 525.97,549.50 C526.95,550.81 526.04,558.00 524.89,558.00 C524.40,558.00 524.00,558.90 524.00,560.00 C524.00,562.46 525.71,562.65 526.25,560.25 C526.49,559.21 527.15,560.31 527.91,563.00 C530.08,570.74 533.76,577.86 535.46,577.61 C538.18,577.21 538.97,575.58 539.63,568.96 C539.99,565.41 540.69,561.97 541.21,561.31 C542.27,559.96 541.61,554.46 538.82,541.50 C534.09,519.50 532.61,508.13 533.58,501.18 C533.83,499.42 534.10,498.16 534.33,497.62 C534.28,498.46 534.40,500.79 534.63,505.00 C534.92,510.23 535.55,515.85 536.03,517.50 C536.51,519.15 538.38,526.80 540.20,534.50 C545.62,557.50 544.48,573.83 536.84,582.53 C534.15,585.59 533.98,586.22 534.86,589.69 C535.40,591.79 536.14,599.62 536.51,607.10 C537.14,619.70 537.03,621.01 535.09,624.82 C533.94,627.08 532.12,629.40 531.06,629.97 C528.70,631.23 527.99,631.22 525.75,629.92 C523.65,628.70 523.55,625.42 525.50,622.00 C529.77,614.54 523.36,605.00 514.09,605.00 C509.96,605.00 508.97,606.87 509.25,614.07 C509.46,619.54 509.24,620.48 507.68,620.80 C505.11,621.33 502.11,618.33 499.37,612.50 C496.48,606.34 496.37,602.07 499.04,598.68 C500.91,596.30 503.53,589.79 506.14,581.00 C506.72,579.08 507.56,577.10 508.02,576.62 C508.48,576.14 507.79,573.31 506.48,570.35 C499.62,554.86 499.39,543.90 505.46,522.80 C507.81,514.63 509.01,508.56 508.81,505.80 C508.50,501.50 508.50,501.51 507.27,507.90 C505.87,515.21 503.47,520.29 497.91,527.71 C493.44,533.67 492.86,535.42 496.50,532.00 C500.04,528.67 499.64,530.45 494.50,540.78 C492.02,545.77 490.00,550.33 490.00,550.92 C490.00,552.75 486.20,552.12 481.10,549.46 C475.04,546.29 469.98,545.41 466.99,547.00 L 464.71 548.23 L 465.24 541.58 C465.94,532.88 468.85,528.52 478.24,522.10 C496.24,509.79 498.62,506.86 499.67,495.63 C500.23,489.68 500.11,489.24 497.57,487.24 C496.10,486.07 492.55,484.36 489.69,483.42 C476.62,479.15 470.42,473.89 467.38,464.53 C463.86,453.65 462.01,450.38 458.44,448.67 C454.27,446.68 451.01,441.68 451.00,437.25 C451.00,433.34 451.36,433.28 455.18,436.50 C458.48,439.27 461.01,439.92 458.98,437.48 C456.82,434.87 458.68,434.69 462.95,437.09 C466.43,439.05 467.92,441.08 473.08,450.94 C480.51,465.15 484.36,469.10 493.48,471.92 C501.52,474.40 504.44,474.59 503.66,472.56 C502.10,468.50 501.03,462.87 500.81,457.62 C500.58,452.32 500.82,451.55 503.34,449.39 C505.26,447.73 507.34,447.00 510.11,447.00 C517.78,447.00 522.64,451.38 527.06,462.30 C530.33,470.38 531.16,470.85 536.07,467.45 C543.15,462.54 549.02,456.87 550.97,453.07 C553.17,448.74 555.55,439.75 556.53,432.00 C557.21,426.62 561.57,416.00 563.10,416.00 C563.52,416.00 564.01,417.24 564.18,418.75 L 564.50 421.50 L 566.47 418.24 C568.75,414.48 570.00,414.51 571.29,418.36 C572.52,422.07 571.54,425.31 567.94,429.42 C565.66,432.01 564.65,434.46 563.91,439.19 C560.62,460.19 560.62,460.19 550.93,470.64 C545.05,476.99 544.00,478.66 544.00,481.69 C544.00,487.35 547.94,502.61 550.33,506.21 C552.93,510.12 560.11,514.00 564.74,514.00 C569.20,514.00 569.78,516.02 567.14,522.37 C565.96,525.21 565.00,528.27 565.00,529.16 C565.00,530.05 564.16,531.82 563.13,533.09 C561.39,535.23 560.98,535.31 557.23,534.19 C548.65,531.62 537.17,517.16 536.90,508.59 C536.85,506.89 536.20,503.25 535.46,500.50 C534.99,498.75 534.68,497.63 534.51,497.33 C534.61,497.26 534.70,497.39 534.76,497.75 C534.97,498.99 535.54,500.00 536.02,500.00 C536.51,500.00 537.18,501.69 537.51,503.75 C537.84,505.81 538.76,508.98 539.56,510.78 C540.35,512.59 541.00,514.95 541.00,516.03 C541.00,517.12 541.40,518.00 541.88,518.00 C542.36,518.00 543.31,519.34 543.99,520.98 C546.36,526.70 558.34,533.62 561.44,531.05 C562.97,529.78 565.49,518.72 564.71,516.70 C564.41,515.92 562.08,515.01 559.43,514.65 C554.64,513.99 548.03,509.98 547.97,507.70 C547.95,507.04 547.06,504.70 546.00,502.50 C544.94,500.30 544.05,497.60 544.02,496.50 C544.00,495.40 543.31,492.29 542.49,489.59 C540.59,483.32 540.59,478.58 542.50,477.00 C543.33,476.32 544.00,475.22 544.00,474.57 C544.00,473.91 545.33,472.39 546.96,471.19 C550.38,468.66 551.80,468.34 550.00,470.50 C548.05,472.85 549.47,472.25 551.60,469.83 C552.64,468.63 552.94,467.99 552.25,468.39 C551.56,468.79 551.00,468.87 551.00,468.56 C551.00,467.80 557.59,455.22 558.78,453.71 C560.48,451.54 561.11,444.15 559.77,442.00 C557.83,438.90 557.29,439.54 556.54,445.75 C556.13,449.17 554.87,453.01 553.43,455.23 C552.09,457.28 551.00,459.39 551.00,459.91 C551.00,460.44 550.10,461.15 549.00,461.50 C547.90,461.85 546.53,463.00 545.96,464.07 C545.39,465.13 544.00,466.00 542.86,466.00 C541.72,466.00 539.05,467.38 536.92,469.07 C533.34,471.90 532.83,472.03 530.28,470.81 C528.29,469.85 526.81,467.73 525.01,463.24 C521.99,455.73 517.06,450.00 513.61,450.00 C512.27,450.00 510.49,449.74 509.66,449.42 C507.70,448.67 502.00,454.61 502.01,457.40 C502.01,458.55 502.44,461.08 502.97,463.00 C505.07,470.74 505.10,472.97 503.12,475.10 C501.35,477.00 500.99,477.05 498.34,475.68 C496.76,474.86 493.34,473.87 490.74,473.48 C488.13,473.09 486.00,472.42 486.00,471.98 C486.00,471.55 484.69,470.36 483.09,469.35 C479.82,467.27 472.00,457.86 472.00,456.00 C472.00,455.34 470.65,452.79 469.00,450.34 C467.35,447.90 466.00,445.09 466.00,444.10 C466.00,443.12 465.02,441.45 463.83,440.40 C462.63,439.36 461.99,439.06 462.39,439.75 C463.25,441.22 461.41,441.47 460.50,440.00 C460.16,439.45 459.35,439.01 458.69,439.02 C457.96,439.02 458.08,439.44 459.00,440.09 C460.18,440.93 459.94,441.07 457.86,440.74 C455.52,440.37 455.24,440.62 455.49,442.87 C455.65,444.27 456.16,445.56 456.64,445.73 C459.97,446.90 462.60,448.92 464.14,451.50 C466.32,455.15 469.00,460.95 469.00,462.04 C469.00,463.80 473.05,472.13 474.72,473.79 C475.70,474.77 479.08,476.85 482.24,478.40 C485.40,479.96 487.77,481.56 487.52,481.97 C487.27,482.38 488.10,482.51 489.36,482.27 C492.72,481.63 499.36,484.63 498.65,486.46 C498.34,487.27 498.59,488.24 499.20,488.62 C499.92,489.07 500.02,488.85 499.50,488.00 C498.96,487.13 499.08,486.93 499.85,487.40 C500.59,487.86 501.00,491.57 501.00,497.84 C501.00,506.68 500.80,507.73 498.75,509.48 C497.51,510.54 496.45,511.20 496.40,510.95 C496.34,510.70 495.06,511.96 493.56,513.75 C492.05,515.54 490.29,517.00 489.64,517.00 C488.32,517.00 480.03,523.30 475.61,527.65 C474.03,529.22 472.38,530.40 471.96,530.28 C469.91,529.70 466.59,538.72 468.01,541.02 C469.27,543.06 484.09,548.21 485.67,547.16 C486.21,546.79 486.95,545.68 487.32,544.69 C487.68,543.69 488.41,543.13 488.92,543.45 C489.44,543.77 490.19,543.51 490.59,542.86 C491.04,542.13 490.88,541.96 490.15,542.40 C488.74,543.28 488.72,542.87 490.01,539.48 C490.78,537.45 490.72,536.94 489.76,537.29 C489.07,537.54 488.61,538.26 488.75,538.88 C488.89,539.49 488.30,540.00 487.44,540.00 C485.82,540.00 486.16,539.01 488.83,535.88 C489.64,534.94 490.86,534.39 491.55,534.66 C492.23,534.92 493.14,534.58 493.56,533.90 C494.10,533.03 493.83,532.85 492.66,533.30 C490.26,534.22 490.58,533.36 494.36,528.67 C498.25,523.84 504.65,511.76 505.45,507.75 C507.05,499.72 507.11,499.57 508.05,501.05 C508.56,501.85 509.03,503.62 509.10,505.00 C509.23,507.35 509.29,507.32 510.08,504.50 C510.72,502.25 510.82,502.88 510.48,507.00 C510.24,510.02 508.96,516.33 507.65,521.00 C503.88,534.47 502.53,541.16 502.60,546.00 C502.71,552.62 504.51,561.77 506.92,567.82 C508.08,570.75 508.73,573.63 508.36,574.23 C507.98,574.84 508.15,575.02 508.75,574.66 C510.50,573.57 512.16,579.77 510.73,582.06 C510.06,583.13 509.15,584.00 508.71,584.00 C508.26,584.00 507.43,585.35 506.85,587.00 C506.27,588.65 505.40,590.00 504.90,590.00 C504.41,590.00 504.00,591.58 504.00,593.51 C504.00,596.00 503.28,597.64 501.50,599.19 C498.43,601.86 498.28,605.81 501.01,611.84 C503.42,617.15 505.22,616.83 506.21,610.92 C507.45,603.60 512.52,601.23 520.15,604.42 C524.67,606.31 527.38,609.43 526.72,611.97 C526.43,613.09 526.53,613.79 526.96,613.52 C527.39,613.26 528.01,615.07 528.35,617.54 C528.86,621.23 528.61,622.39 526.95,624.05 C525.84,625.16 525.20,626.51 525.52,627.04 C526.50,628.62 529.45,628.13 531.20,626.08 ZM 452.09 432.08 C455.08,431.25 458.58,431.28 461.64,432.32 C465.73,433.70 469.00,433.50 469.00,431.87 C469.00,431.33 469.39,431.13 469.88,431.42 C470.36,431.72 472.49,430.72 474.63,429.19 C481.42,424.33 487.67,421.06 496.83,417.56 C508.83,412.99 522.35,412.07 542.87,414.44 C556.88,416.06 557.28,416.05 558.58,414.19 C560.06,412.07 568.11,409.44 570.41,410.33 C573.07,411.35 574.93,415.45 575.49,421.53 C575.94,426.44 576.52,427.90 578.77,429.78 C580.27,431.04 583.19,433.63 585.26,435.53 C587.33,437.43 589.55,438.88 590.18,438.75 C590.82,438.61 591.82,439.42 592.42,440.54 C593.01,441.66 595.24,444.70 597.37,447.29 L 601.24 452.00 L 624.79 452.00 C637.74,452.00 648.04,451.70 647.68,451.34 C647.31,450.98 647.47,450.14 648.02,449.47 C648.72,448.64 648.56,447.88 647.51,447.01 C646.68,446.32 646.00,444.93 646.00,443.93 C646.00,441.23 637.13,427.87 629.89,419.68 C621.41,410.09 610.87,400.00 609.32,400.00 C608.63,400.00 607.64,399.19 607.11,398.21 C606.59,397.23 604.88,395.78 603.33,395.01 C601.77,394.23 599.60,392.86 598.50,391.96 C595.34,389.39 589.68,386.38 585.42,384.99 C583.26,384.29 579.47,382.68 577.00,381.41 C574.53,380.15 571.15,378.83 569.50,378.48 C567.85,378.13 565.60,377.47 564.50,377.01 C553.33,372.36 539.82,370.61 520.76,371.34 C504.41,371.97 497.57,373.06 486.50,376.79 C483.20,377.90 479.15,379.12 477.50,379.49 C475.85,379.85 472.51,381.47 470.08,383.08 C467.65,384.68 464.77,386.00 463.70,386.00 C461.52,386.00 456.46,388.84 450.72,393.29 C448.64,394.90 445.87,396.28 444.57,396.36 C443.26,396.44 442.38,396.80 442.60,397.16 C442.82,397.53 440.92,399.66 438.36,401.91 C433.81,405.92 431.17,407.23 432.61,404.75 C432.66,404.67 432.69,404.60 432.71,404.54 C466.50,374.45 514.34,361.79 561.15,373.56 C598.67,382.99 631.65,409.52 649.38,444.53 C651.85,449.41 653.72,453.65 653.53,453.95 C653.34,454.25 641.52,454.50 627.25,454.50 L 601.30 454.50 L 598.48 451.00 C593.83,445.22 582.15,434.28 577.45,431.30 L 573.04 428.51 L 573.61 423.51 C574.55,415.29 571.27,410.10 566.88,412.84 C565.86,413.48 564.22,414.00 563.23,414.00 C562.24,414.00 560.63,415.35 559.66,417.00 C557.55,420.57 557.42,420.58 548.50,417.88 C542.76,416.15 538.88,415.76 527.00,415.75 C509.85,415.74 501.64,417.53 487.50,424.36 C479.25,428.34 468.97,435.14 468.17,437.14 C467.99,437.60 466.58,437.32 465.04,436.52 C461.20,434.54 455.07,432.46 452.09,432.08 ZM 534.19 630.57 C534.07,630.92 534.30,630.93 534.85,630.60 C535.48,630.20 536.00,630.33 536.00,630.88 C536.00,632.85 531.49,635.00 527.38,635.00 C523.72,635.00 522.96,634.59 521.27,631.73 C520.21,629.93 519.46,627.57 519.60,626.48 C520.99,615.99 520.92,614.21 519.00,612.00 C516.17,608.73 513.80,610.04 514.02,614.75 C514.28,620.37 514.11,621.19 512.85,620.40 C512.12,619.95 511.96,620.13 512.43,620.89 C514.80,624.72 505.23,626.54 500.84,623.09 C497.28,620.29 493.07,611.92 492.43,606.36 C491.40,597.41 491.35,597.34 485.51,594.91 C482.48,593.66 480.00,592.24 480.00,591.76 C480.00,591.28 479.55,591.16 479.00,591.50 C478.45,591.84 478.00,591.71 478.00,591.22 C478.00,590.73 476.99,589.79 475.75,589.14 C469.75,585.99 454.00,572.02 454.00,569.86 C454.00,569.32 454.52,569.20 455.15,569.60 C455.88,570.04 456.04,569.87 455.59,569.14 C455.19,568.49 454.49,568.20 454.02,568.48 C452.55,569.40 444.94,559.34 444.72,556.17 C444.60,554.53 444.22,553.37 443.88,553.57 C441.60,554.98 437.55,545.16 433.34,528.00 C431.23,519.40 431.22,499.83 433.33,490.50 C436.67,475.66 438.84,467.72 439.70,467.12 C440.20,466.78 442.09,463.80 443.92,460.50 C445.74,457.20 447.90,453.74 448.71,452.81 C449.56,451.85 449.87,450.56 449.43,449.81 C449.00,449.09 449.65,449.38 450.87,450.45 C452.57,451.93 452.26,451.01 449.56,446.53 C444.59,438.28 444.40,437.28 447.31,434.59 C447.80,434.14 448.35,433.73 448.96,433.37 C447.44,436.06 448.65,442.24 452.27,447.15 L 454.23 449.80 L 451.29 454.15 C439.03,472.27 433.99,488.27 434.02,509.00 C434.04,525.43 436.66,536.40 444.10,551.25 C453.36,569.72 468.99,584.58 488.77,593.72 C494.84,596.52 496.02,597.44 495.35,598.82 C492.53,604.69 497.31,618.39 503.50,622.16 C510.15,626.22 513.36,623.00 512.37,613.27 L 511.72 607.00 L 515.25 607.00 C517.21,607.00 519.81,607.83 521.09,608.87 C523.62,610.92 523.95,614.33 522.52,623.73 C521.65,629.47 522.56,631.50 526.71,633.08 C529.24,634.04 531.75,633.19 534.19,630.57 ZM 577.46 509.57 C577.45,509.84 577.52,510.28 577.67,510.84 C577.96,511.96 577.30,514.59 576.20,516.69 C569.98,528.54 568.90,531.33 569.19,534.84 L 569.50 538.50 L 588.00 538.75 C603.25,538.96 607.07,539.31 609.75,540.73 C612.91,542.41 614.02,545.25 612.00,546.50 C611.45,546.84 609.63,549.97 607.95,553.45 C604.93,559.71 601.87,563.54 600.77,562.44 C600.46,562.12 600.23,562.46 600.26,563.18 C600.42,566.85 599.90,569.05 599.00,568.50 C598.45,568.16 598.00,568.39 598.00,569.00 C598.00,569.61 597.60,569.87 597.10,569.56 C596.61,569.26 595.94,569.71 595.62,570.56 C595.22,571.59 595.44,571.88 596.26,571.43 C596.94,571.07 596.19,571.94 594.59,573.38 C591.91,575.80 590.63,576.41 588.79,576.13 C588.39,576.07 588.32,576.66 588.61,577.44 C589.23,579.04 585.00,582.24 582.87,581.79 C582.07,581.62 581.61,582.19 581.77,583.16 C582.03,584.72 574.19,591.00 572.00,591.00 C571.50,591.00 570.69,591.74 570.19,592.63 C569.55,593.78 568.35,594.13 566.20,593.82 C564.51,593.57 563.21,593.74 563.31,594.21 C563.67,595.83 552.79,600.37 544.67,602.00 C539.13,603.10 538.83,603.71 539.93,611.54 C541.23,620.71 538.89,631.29 535.96,629.47 C535.72,629.33 535.42,629.34 535.12,629.48 C535.42,629.10 535.72,628.69 536.02,628.26 C538.30,624.91 538.50,623.72 538.50,613.16 L 538.50 601.70 L 547.40 599.34 C566.48,594.26 582.61,583.78 596.18,567.62 C601.09,561.78 611.00,544.87 611.00,542.34 C611.00,541.88 600.62,541.43 587.93,541.35 C575.25,541.27 564.66,540.99 564.40,540.73 C563.70,540.04 567.21,531.54 575.74,513.23 C576.35,511.92 576.92,510.70 577.46,509.57 ZM 550.50 644.00 C553.80,643.37 557.69,642.21 559.14,641.43 C560.59,640.65 563.29,639.82 565.14,639.58 C569.34,639.04 571.47,638.22 581.75,633.19 C586.29,630.97 590.00,629.40 590.00,629.70 C590.00,630.00 590.67,629.69 591.49,629.01 C592.31,628.33 593.68,628.05 594.54,628.38 C595.48,628.74 595.85,628.56 595.47,627.94 C594.56,626.48 596.89,624.00 599.18,624.00 C600.25,624.00 600.84,624.44 600.51,624.99 C600.24,625.42 600.41,625.61 600.94,625.51 C584.49,636.23 567.06,643.00 547.26,646.46 C531.30,649.25 505.80,647.95 490.42,643.55 C466.74,636.78 446.12,624.93 429.60,609.42 C429.65,609.42 429.65,609.37 429.59,609.25 C429.20,608.56 429.17,608.00 429.51,608.00 C430.11,608.00 437.66,614.03 442.85,618.65 C444.18,619.84 446.45,621.41 447.89,622.15 C449.32,622.89 450.73,623.75 451.00,624.06 C451.96,625.14 461.26,630.00 462.38,630.00 C462.99,630.01 465.08,631.01 467.00,632.23 C468.92,633.45 475.23,636.18 481.00,638.29 C491.04,641.95 495.39,643.09 506.50,644.96 C513.22,646.10 543.02,645.45 550.50,644.00 ZM 416.42 421.81 C416.44,421.95 416.49,422.12 416.56,422.31 C416.86,423.08 416.02,425.02 414.70,426.61 C411.03,431.01 404.03,442.90 401.81,448.50 C400.73,451.25 399.46,453.95 399.01,454.50 C397.37,456.48 393.92,466.70 391.41,477.00 C386.07,498.95 385.87,514.24 390.65,536.04 C392.14,542.89 393.40,549.69 393.44,551.15 C393.47,552.61 393.78,553.64 394.12,553.42 C394.71,553.06 397.03,557.84 401.02,567.62 C403.28,573.13 412.27,587.83 415.45,591.21 C416.85,592.69 418.00,594.29 418.00,594.75 C418.00,595.21 420.02,597.57 422.50,600.00 C424.98,602.43 427.00,604.86 427.00,605.40 C427.00,605.93 425.65,605.08 424.00,603.50 C423.22,602.76 422.51,602.12 421.98,601.69 C398.16,575.57 384.89,541.00 386.27,503.50 C387.05,482.33 390.50,468.45 399.99,448.33 C404.52,438.73 410.05,429.86 416.42,421.81 ZM 638.75 589.57 C638.98,589.09 638.77,589.03 638.15,589.40 C635.66,590.95 637.17,586.68 640.93,581.60 C643.09,578.67 645.58,574.75 646.46,572.89 C647.35,571.03 649.15,567.43 650.46,564.89 C651.77,562.35 652.99,559.43 653.17,558.39 C653.60,555.93 655.26,554.06 656.40,554.76 C656.90,555.06 657.00,554.82 656.63,554.21 C656.26,553.61 656.85,549.60 657.95,545.31 C661.24,532.48 663.00,520.30 663.00,510.45 C663.00,505.34 662.73,500.45 662.39,499.58 C661.93,498.37 660.11,497.96 654.64,497.81 L 647.50 497.63 L 656.00 497.00 C660.67,496.65 646.50,496.34 624.50,496.30 C602.50,496.27 585.85,496.58 587.50,497.00 C589.81,497.59 590.00,497.79 588.32,497.88 C586.23,498.00 582.00,502.24 582.00,504.23 C582.00,505.66 578.35,510.02 577.70,509.37 C577.66,509.32 577.62,509.30 577.59,509.29 C581.97,500.11 584.02,496.79 585.41,496.45 C586.56,496.17 604.83,496.07 626.00,496.22 L 664.50 496.50 L 664.40 511.50 C664.26,533.90 659.96,551.52 649.80,571.29 C646.47,577.78 642.78,583.88 638.75,589.57 ZM 602.58 624.43 C602.49,624.36 602.35,624.28 602.14,624.21 C601.39,623.96 602.60,622.22 605.19,619.82 C611.56,613.94 618.45,609.85 616.40,613.15 C615.96,613.88 616.13,614.04 616.86,613.59 C617.51,613.19 617.75,612.41 617.41,611.85 C617.07,611.30 619.65,608.05 623.14,604.63 C626.64,601.22 631.03,596.54 632.90,594.25 C634.77,591.95 636.65,590.28 637.08,590.55 C637.40,590.75 637.86,590.62 638.24,590.28 C631.11,600.22 622.91,608.91 613.71,616.26 C610.04,619.20 606.33,621.92 602.58,624.43 ZM 425.30 411.66 C425.32,411.71 425.35,411.77 425.39,411.82 C426.21,413.15 418.19,422.23 416.90,421.44 C416.85,421.41 416.81,421.39 416.77,421.37 C419.47,417.99 422.32,414.75 425.30,411.66 ZM 565.78 424.75 C566.49,423.88 566.41,423.14 565.51,422.31 C563.98,420.90 563.00,421.62 563.00,424.17 C563.00,426.28 564.30,426.56 565.78,424.75 ZM 562.33 432.57 C562.63,431.79 562.29,430.65 561.56,430.05 C560.56,429.22 560.12,429.43 559.73,430.92 C558.94,433.93 561.25,435.39 562.33,432.57 ZM 529.00 570.43 C529.00,570.11 528.35,569.21 527.56,568.42 C526.55,567.41 525.92,567.31 525.44,568.10 C525.06,568.72 525.36,569.62 526.12,570.10 C527.71,571.10 529.00,571.25 529.00,570.43 ZM 429.45 407.54 C429.42,407.67 429.44,407.77 429.50,407.83 C430.36,408.70 426.79,411.99 425.71,411.32 C425.69,411.31 425.68,411.30 425.66,411.29 C426.90,410.02 428.17,408.77 429.45,407.54 ZM 511.00 580.00 C511.00,579.45 510.80,579.00 510.56,579.00 C510.32,579.00 509.84,579.45 509.50,580.00 C509.16,580.55 509.36,581.00 509.94,581.00 C510.52,581.00 511.00,580.55 511.00,580.00 ZM 430.50 407.00 C430.84,406.45 431.32,406.00 431.56,406.00 C431.80,406.00 432.00,406.45 432.00,407.00 C432.00,407.55 431.52,408.00 430.94,408.00 C430.36,408.00 430.16,407.55 430.50,407.00 ZM 510.00 577.00 C510.00,576.45 509.52,576.00 508.94,576.00 C508.36,576.00 508.16,576.45 508.50,577.00 C508.84,577.55 509.32,578.00 509.56,578.00 C509.80,578.00 510.00,577.55 510.00,577.00 ZM 427.50 607.00 C427.16,606.45 427.36,606.00 427.94,606.00 C428.52,606.00 429.00,606.45 429.00,607.00 C429.00,607.55 428.80,608.00 428.56,608.00 C428.32,608.00 427.84,607.55 427.50,607.00 ZM 570.25 411.34 C569.56,411.06 568.44,411.06 567.75,411.34 C567.06,411.62 567.62,411.84 569.00,411.84 C570.38,411.84 570.94,411.62 570.25,411.34 Z" fill="rgb(81,78,165)"/>
<path d="M 534.63 505.00 C534.40,500.79 534.28,498.46 534.33,497.62 C534.39,497.47 534.45,497.37 534.51,497.33 C534.68,497.63 534.99,498.75 535.46,500.50 C536.20,503.25 536.85,506.89 536.90,508.59 C536.96,510.24 537.42,512.11 538.21,514.07 C536.77,511.38 536.40,511.40 536.20,513.10 C536.02,514.67 536.39,517.55 538.05,525.51 C537.08,521.56 536.31,518.48 536.03,517.50 C535.55,515.85 534.92,510.23 534.63,505.00 ZM 522.97 547.00 C523.11,547.63 523.27,548.36 523.44,549.10 L 523.74 550.50 L 523.75 550.39 C524.00,551.45 524.25,552.45 524.44,553.14 C525.13,555.66 523.99,557.66 522.64,556.31 C522.29,555.95 522.05,552.93 522.11,549.58 C522.21,544.30 522.33,543.96 522.97,547.00 ZM 508.50 509.97 C508.38,509.98 508.24,510.00 508.08,510.00 C507.57,510.00 506.60,511.69 505.92,513.75 C504.56,517.90 501.21,523.58 496.86,529.14 C496.80,529.21 496.75,529.28 496.70,529.35 C497.06,528.84 497.46,528.30 497.91,527.71 C503.47,520.29 505.87,515.21 507.27,507.90 C508.50,501.51 508.50,501.50 508.81,505.80 C508.88,506.79 508.77,508.20 508.50,509.97 ZM 542.29 545.00 C543.83,552.42 544.08,559.91 543.17,566.46 C543.90,560.41 543.61,553.24 542.29,545.00 ZM 541.29 519.93 C545.47,526.42 551.91,532.59 557.23,534.19 C551.89,532.59 545.38,526.67 541.29,519.93 ZM 539.61 578.53 C538.70,580.28 537.65,581.80 536.47,583.04 C536.23,583.28 536.03,583.50 535.84,583.71 C536.12,583.36 536.45,582.97 536.84,582.53 C537.88,581.34 538.81,580.01 539.61,578.53 ZM 494.12 533.61 C494.26,533.86 495.05,533.37 496.50,532.00 C494.92,533.48 494.14,533.99 494.12,533.61 Z" fill="rgb(191,191,228)"/>
<path d="M 0.00 508.00 L 0.00 0.00 L 516.00 0.00 L 1032.00 0.00 L 1032.00 508.00 L 1032.00 1016.00 L 516.00 1016.00 L 0.00 1016.00 L 0.00 508.00 ZM 547.26 646.46 C572.25,642.09 593.46,632.45 613.71,616.26 C628.36,604.55 640.47,589.46 649.80,571.29 C659.96,551.52 664.26,533.90 664.40,511.50 L 664.50 496.50 L 626.00 496.22 C604.83,496.07 586.56,496.17 585.41,496.45 C583.84,496.83 581.42,501.03 575.74,513.23 C567.21,531.54 563.70,540.04 564.40,540.73 C564.66,540.99 575.25,541.27 587.93,541.35 C600.62,541.43 611.00,541.88 611.00,542.34 C611.00,544.87 601.09,561.78 596.18,567.62 C582.61,583.78 566.48,594.26 547.40,599.34 L 538.50 601.70 L 538.50 613.16 C538.50,623.72 538.30,624.91 536.02,628.26 C533.02,632.65 529.87,634.28 526.71,633.08 C522.56,631.50 521.65,629.47 522.52,623.73 C523.95,614.33 523.62,610.92 521.09,608.87 C519.81,607.83 517.21,607.00 515.25,607.00 L 511.72 607.00 L 512.37 613.27 C513.36,623.00 510.15,626.22 503.50,622.16 C497.31,618.39 492.53,604.69 495.35,598.82 C496.02,597.44 494.84,596.52 488.77,593.72 C468.99,584.58 453.36,569.72 444.10,551.25 C436.66,536.40 434.04,525.43 434.02,509.00 C433.99,488.27 439.03,472.27 451.29,454.15 L 454.23 449.80 L 452.27 447.15 C447.49,440.68 446.92,431.99 451.27,432.01 C453.78,432.03 460.81,434.33 465.04,436.52 C466.58,437.32 467.99,437.60 468.17,437.14 C468.97,435.14 479.25,428.34 487.50,424.36 C501.64,417.53 509.85,415.74 527.00,415.75 C538.88,415.76 542.76,416.15 548.50,417.88 C557.42,420.58 557.55,420.57 559.66,417.00 C560.63,415.35 562.24,414.00 563.23,414.00 C564.22,414.00 565.86,413.48 566.88,412.84 C571.27,410.10 574.55,415.29 573.61,423.51 L 573.04 428.51 L 577.45 431.30 C582.15,434.28 593.83,445.22 598.48,451.00 L 601.30 454.50 L 627.25 454.50 C641.52,454.50 653.34,454.25 653.53,453.95 C653.72,453.65 651.85,449.41 649.38,444.53 C631.65,409.52 598.67,382.99 561.15,373.56 C495.71,357.11 428.26,388.40 399.99,448.33 C390.50,468.45 387.05,482.33 386.27,503.50 C383.87,568.71 425.78,625.06 490.42,643.55 C505.80,647.95 531.30,649.25 547.26,646.46 ZM 531.06 629.97 C532.12,629.40 533.94,627.08 535.09,624.82 C537.03,621.01 537.14,619.70 536.51,607.10 C536.14,599.62 535.39,591.76 534.85,589.63 C533.95,586.13 534.11,585.50 536.47,583.04 C543.25,575.95 545.59,559.72 542.08,544.00 C536.98,521.13 535.91,515.54 536.20,513.10 C536.45,510.89 537.00,511.52 539.78,517.18 C543.62,525.02 551.17,532.37 557.23,534.19 C560.98,535.31 561.39,535.23 563.13,533.09 C564.16,531.82 565.00,530.05 565.00,529.16 C565.00,528.27 565.96,525.21 567.14,522.37 C569.78,516.02 569.20,514.00 564.74,514.00 C560.11,514.00 552.93,510.12 550.33,506.21 C547.94,502.61 544.00,487.35 544.00,481.69 C544.00,478.66 545.05,476.99 550.93,470.64 C560.62,460.19 560.62,460.19 563.91,439.19 C564.65,434.46 565.66,432.01 567.94,429.42 C571.54,425.31 572.52,422.07 571.29,418.36 C570.00,414.51 568.75,414.48 566.47,418.24 L 564.50 421.50 L 564.18 418.75 C564.01,417.24 563.52,416.00 563.10,416.00 C561.57,416.00 557.21,426.62 556.53,432.00 C555.55,439.75 553.17,448.74 550.97,453.07 C549.02,456.87 543.15,462.54 536.07,467.45 C531.16,470.85 530.33,470.38 527.06,462.30 C522.64,451.38 517.78,447.00 510.11,447.00 C507.34,447.00 505.26,447.73 503.34,449.39 C500.82,451.55 500.58,452.32 500.81,457.62 C501.03,462.87 502.10,468.50 503.66,472.56 C504.44,474.59 501.52,474.40 493.48,471.92 C484.36,469.10 480.51,465.15 473.08,450.94 C467.92,441.08 466.43,439.05 462.95,437.09 C458.68,434.69 456.82,434.87 458.98,437.48 C461.01,439.92 458.48,439.27 455.18,436.50 C451.36,433.28 451.00,433.34 451.00,437.25 C451.01,441.68 454.27,446.68 458.44,448.67 C462.01,450.38 463.86,453.65 467.38,464.53 C470.42,473.89 476.62,479.15 489.69,483.42 C492.55,484.36 496.10,486.07 497.57,487.24 C500.11,489.24 500.23,489.68 499.67,495.63 C498.62,506.86 496.24,509.79 478.24,522.10 C468.85,528.52 465.94,532.88 465.24,541.58 L 464.71 548.23 L 466.99 547.00 C469.98,545.41 475.04,546.29 481.10,549.46 C486.20,552.12 490.00,552.75 490.00,550.92 C490.00,550.33 492.02,545.77 494.50,540.78 C499.64,530.45 500.04,528.67 496.50,532.00 C493.14,535.15 493.33,533.64 496.86,529.14 C501.21,523.58 504.56,517.90 505.92,513.75 C506.60,511.69 507.57,510.00 508.08,510.00 C509.27,510.00 509.52,508.79 505.40,523.04 C499.39,543.85 499.64,554.90 506.48,570.35 C507.79,573.31 508.48,576.14 508.02,576.62 C507.56,577.10 506.72,579.08 506.14,581.00 C503.53,589.79 500.91,596.30 499.04,598.68 C496.37,602.07 496.48,606.34 499.37,612.50 C502.11,618.33 505.11,621.33 507.68,620.80 C509.24,620.48 509.46,619.54 509.25,614.07 C508.97,606.87 509.96,605.00 514.09,605.00 C523.36,605.00 529.77,614.54 525.50,622.00 C523.55,625.42 523.65,628.70 525.75,629.92 C527.99,631.22 528.70,631.23 531.06,629.97 Z" fill="rgb(254,254,254)"/>
</g>
</svg>