<svg xmlns="http://www.w3.org/2000/svg" width="1032" height="1016" viewBox="0 0 1032 1016">
<g>
<path d="M 255.31 600.07 C251.57,600.63 247.15,601.25 245.50,601.46 C241.91,601.91 219.75,598.79 212.00,596.74 C208.98,595.94 203.80,593.93 200.50,592.28 C197.20,590.62 193.38,588.93 192.00,588.52 C188.61,587.50 172.98,577.10 172.34,575.43 C172.05,574.70 170.28,573.18 168.39,572.07 C166.50,570.95 164.66,569.24 164.31,568.27 C163.96,567.30 161.54,564.39 158.93,561.81 C154.44,557.38 147.00,547.20 147.00,545.51 C147.00,544.63 142.79,535.79 142.00,535.00 C141.73,534.72 140.43,531.12 139.12,527.00 C137.82,522.88 136.06,517.92 135.22,516.00 C132.84,510.57 132.38,477.62 134.58,470.10 C135.48,467.02 136.85,462.09 137.62,459.15 C138.40,456.21 139.70,452.84 140.51,451.68 C141.33,450.51 142.01,448.64 142.02,447.53 C142.04,445.59 145.55,439.51 149.94,433.84 C151.07,432.38 152.00,430.71 152.00,430.13 C152.00,429.54 153.57,427.49 155.50,425.57 C157.43,423.64 159.00,421.47 159.00,420.74 C159.00,419.13 166.12,412.00 167.72,412.00 C168.35,412.00 169.79,410.71 170.91,409.12 C172.04,407.54 174.66,405.45 176.73,404.47 C178.80,403.49 182.30,401.16 184.50,399.29 C188.00,396.31 192.46,393.90 204.50,388.48 C206.15,387.73 209.30,386.92 211.50,386.67 C213.70,386.43 220.45,385.29 226.49,384.14 C236.23,382.29 239.03,382.16 251.11,382.97 C265.59,383.95 271.76,385.50 282.69,390.93 C286.10,392.62 289.31,394.00 289.82,394.00 C291.28,394.00 302.11,400.51 305.91,403.67 C307.79,405.22 310.49,407.24 311.91,408.14 C314.74,409.94 324.88,419.93 329.22,425.20 C332.91,429.67 339.18,442.09 338.56,443.70 C338.18,444.70 334.09,445.00 321.06,445.00 L 304.05 445.00 L 300.77 441.28 C296.30,436.20 292.94,433.04 288.24,429.50 C284.65,426.80 284.20,425.95 283.68,421.02 C282.98,414.47 281.40,413.00 275.05,413.00 C271.56,413.00 270.18,413.47 269.23,415.00 C267.89,417.15 264.07,417.67 262.35,415.95 C261.75,415.35 254.49,414.64 245.71,414.31 C232.67,413.82 229.47,413.99 226.05,415.36 C223.80,416.26 221.01,417.00 219.84,417.00 C216.41,417.00 201.35,424.81 199.58,427.52 C197.77,430.27 195.42,430.63 192.70,428.57 C190.52,426.92 183.59,427.55 180.13,429.72 C178.02,431.04 177.84,431.66 178.50,435.35 C179.75,442.41 179.25,445.81 176.15,451.25 C172.50,457.68 167.02,473.41 167.01,477.51 C167.00,479.16 166.58,481.96 166.08,483.73 C164.80,488.18 166.59,506.89 169.09,515.19 C170.20,518.87 172.19,523.82 173.52,526.19 C174.85,528.56 176.62,532.00 177.45,533.84 C179.31,537.91 191.58,550.75 198.78,556.15 C201.69,558.33 205.92,560.76 208.18,561.56 C213.08,563.29 214.92,565.45 214.97,569.50 C215.00,571.15 215.91,573.85 217.00,575.50 C218.09,577.15 218.99,579.28 218.99,580.24 C219.00,581.19 220.82,583.13 223.05,584.53 C226.73,586.86 227.42,586.98 230.53,585.85 C233.87,584.64 234.04,584.71 237.82,588.81 C242.11,593.45 245.02,594.08 250.09,591.45 C253.94,589.46 255.00,586.52 255.00,577.87 C255.00,569.84 256.13,567.00 259.32,567.00 C264.11,567.00 280.19,560.39 284.04,556.84 C287.34,553.79 292.70,550.00 293.71,550.00 C294.95,550.00 300.50,543.79 300.51,542.39 C300.52,541.71 301.46,540.33 302.59,539.32 C305.08,537.13 311.07,527.79 312.96,523.17 C314.24,520.01 314.17,519.71 311.69,517.58 C309.34,515.56 307.91,515.31 297.82,515.15 C288.75,515.01 283.12,514.19 279.26,512.46 C279.13,512.40 279.67,509.91 280.48,506.93 C282.52,499.33 285.91,492.83 290.32,488.07 L 294.08 484.00 L 321.47 484.00 C344.95,484.00 349.08,484.22 350.42,485.56 C351.73,486.87 351.88,489.06 351.39,499.31 C351.07,506.01 350.23,513.30 349.53,515.50 C348.83,517.70 347.45,521.97 346.47,525.00 C344.71,530.46 338.34,544.04 337.10,545.00 C336.74,545.28 335.34,547.74 333.98,550.47 C332.61,553.21 330.97,556.03 330.32,556.73 C329.66,557.44 328.85,558.91 328.50,560.01 C328.15,561.10 327.21,562.00 326.40,562.00 C325.60,562.00 324.64,562.79 324.27,563.75 C323.46,565.89 321.46,568.00 320.23,568.00 C319.73,568.00 318.80,569.14 318.17,570.53 C317.54,571.92 316.23,573.34 315.26,573.68 C314.29,574.02 312.60,575.09 311.50,576.05 C310.40,577.02 306.85,579.22 303.62,580.96 C300.39,582.70 297.17,584.69 296.47,585.39 C292.00,589.85 269.08,598.03 255.31,600.07 ZM 600.32 541.04 C585.51,542.59 574.49,541.34 563.00,536.79 C557.96,534.80 544.00,524.72 544.00,523.08 C544.00,522.69 542.71,521.06 541.14,519.44 C537.15,515.33 535.59,511.92 532.50,500.60 C529.65,490.12 529.66,486.60 532.55,476.61 C534.66,469.37 540.48,457.61 543.42,454.67 C544.84,453.25 546.00,451.72 546.00,451.26 C546.00,450.81 547.35,449.93 549.00,449.31 C550.65,448.68 552.00,447.53 552.00,446.74 C552.00,445.95 553.91,444.51 556.25,443.55 C558.59,442.59 563.20,440.53 566.50,438.98 C577.82,433.67 597.99,433.21 608.55,438.02 C610.94,439.11 613.74,440.00 614.79,440.00 C615.83,440.00 618.00,441.12 619.59,442.50 C621.19,443.87 623.08,445.00 623.80,445.00 C626.80,445.00 638.08,458.84 641.73,467.00 C646.26,477.11 647.10,481.26 646.45,490.08 C645.11,508.08 637.14,522.69 624.00,531.18 C611.63,539.18 609.49,540.07 600.32,541.04 ZM 812.93 539.47 C811.59,540.81 799.02,541.20 796.16,539.99 L 793.81 538.99 L 794.16 489.53 C794.45,446.91 794.71,439.86 796.02,438.55 C797.30,437.27 801.74,437.01 823.62,436.90 C841.11,436.81 850.39,437.14 851.79,437.89 C852.93,438.50 854.99,439.00 856.36,439.00 C857.74,439.00 861.78,440.35 865.34,442.00 C868.91,443.65 872.32,445.00 872.93,445.00 C873.54,445.00 874.54,446.09 875.14,447.42 C875.75,448.74 876.98,450.02 877.88,450.26 C880.25,450.88 884.82,462.80 885.60,470.38 C886.07,475.02 885.83,478.27 884.75,481.70 C883.92,484.34 882.97,487.66 882.64,489.08 C882.29,490.60 879.05,494.28 874.77,498.01 C867.92,503.98 865.88,505.73 865.66,507.67 C865.57,508.50 865.81,509.36 866.15,510.59 L 866.21 510.78 C867.23,514.50 867.93,515.57 875.10,524.50 C877.31,527.25 879.76,530.85 880.54,532.50 C881.32,534.15 882.53,536.30 883.23,537.28 C884.28,538.74 884.24,539.22 883.00,540.01 C881.31,541.09 867.40,541.22 864.81,540.18 C863.22,539.54 852.85,524.92 850.86,520.52 C849.53,517.58 845.18,511.70 843.27,510.25 C840.73,508.32 817.64,508.52 816.01,510.49 C815.23,511.43 814.62,516.81 814.34,525.24 C814.09,532.53 813.46,538.94 812.93,539.47 ZM 738.51 538.65 C734.13,540.98 732.25,541.32 723.01,541.50 C702.60,541.89 697.69,540.53 684.68,530.88 C679.93,527.36 678.24,525.25 675.44,519.43 C673.55,515.51 671.55,509.92 671.00,507.02 C669.69,500.07 669.83,447.75 671.18,442.28 C672.30,437.76 672.73,437.49 680.50,436.52 C690.28,435.30 691.00,437.68 691.00,471.11 C691.00,503.07 691.98,510.86 696.65,516.03 C698.49,518.07 700.00,520.23 700.00,520.83 C700.00,521.43 703.26,522.89 707.24,524.07 C721.75,528.39 736.99,523.88 741.84,513.81 C744.92,507.40 745.20,504.05 745.36,470.79 C745.47,446.59 745.78,439.97 746.87,438.65 C747.90,437.42 749.91,437.00 754.87,437.02 C758.52,437.02 762.13,437.43 762.89,437.91 C763.66,438.40 764.59,440.81 764.97,443.27 C765.80,448.77 765.31,500.96 764.38,506.50 C763.06,514.27 756.69,526.15 751.11,531.25 C748.25,533.86 745.36,536.00 744.70,536.00 C744.03,536.00 741.24,537.19 738.51,538.65 ZM 482.93 540.52 C472.24,543.29 450.24,541.57 439.59,537.14 C431.03,533.58 424.36,527.91 419.50,520.07 C418.95,519.18 417.50,517.06 416.27,515.35 C415.04,513.64 412.85,508.56 411.40,504.05 C409.02,496.68 408.80,494.73 409.19,484.68 C409.59,474.54 409.94,472.85 412.98,466.50 C416.41,459.33 423.44,450.00 425.42,450.00 C426.03,450.00 426.97,448.99 427.51,447.75 C428.06,446.51 429.85,445.05 431.50,444.49 C433.15,443.93 435.82,442.58 437.44,441.49 C443.84,437.16 451.60,435.60 467.00,435.55 C479.10,435.51 482.16,435.81 485.50,437.36 C489.33,439.14 490.73,439.75 499.26,443.38 C503.37,445.12 507.19,450.33 506.22,452.86 C505.40,455.01 499.34,461.00 497.98,461.00 C497.39,461.00 493.23,459.09 488.75,456.75 L 480.61 452.50 L 467.06 452.50 C454.65,452.50 453.09,452.71 448.72,454.94 C442.75,457.99 434.94,465.39 432.82,470.00 C428.75,478.87 427.82,492.57 430.67,501.63 C432.38,507.03 438.09,514.85 443.50,519.18 C451.23,525.35 469.30,528.04 479.68,524.56 C487.74,521.85 488.25,520.87 489.17,506.23 C489.61,499.24 490.19,492.95 490.45,492.26 C491.09,490.59 504.14,490.54 505.80,492.20 C507.52,493.92 507.48,526.99 505.75,529.27 C503.90,531.72 489.52,538.81 482.93,540.52 ZM 578.50 525.04 C581.07,525.97 582.44,526.52 583.86,526.71 C585.71,526.97 587.65,526.62 592.46,525.77 C592.90,525.70 593.36,525.61 593.85,525.53 C603.40,523.85 614.42,518.37 616.22,514.42 C616.83,513.09 617.69,512.00 618.14,512.00 C618.60,512.00 620.16,509.64 621.63,506.75 C625.04,500.02 626.53,487.18 624.87,478.75 C623.73,472.94 619.19,464.69 615.75,462.17 C614.75,461.44 612.92,459.75 611.69,458.42 C605.82,452.09 586.39,449.82 574.00,454.00 C563.84,457.43 556.22,466.03 553.12,477.55 C552.52,479.77 551.98,485.64 551.92,490.61 C551.80,499.08 551.99,499.95 554.93,504.73 C556.65,507.53 557.93,510.26 557.78,510.79 C557.02,513.42 568.78,521.51 578.50,525.04 ZM 250.00 578.69 C250.00,580.87 248.13,581.79 246.67,580.33 C246.30,579.97 246.00,577.93 246.00,575.81 C246.00,572.65 245.56,571.78 243.59,571.03 C242.26,570.53 240.86,569.14 240.49,567.96 C239.95,566.27 239.23,565.91 237.16,566.31 C235.71,566.59 233.69,566.37 232.68,565.83 C230.42,564.62 227.49,566.92 226.56,570.61 C225.78,573.74 224.00,572.76 223.99,569.19 C223.97,565.85 228.09,552.75 229.46,551.80 C231.29,550.52 230.52,539.80 228.29,535.50 C224.10,527.44 224.63,512.85 229.63,498.40 C231.36,493.40 231.57,488.33 230.17,485.00 C229.60,483.62 229.10,483.09 229.06,483.81 C229.03,484.53 228.55,484.84 228.00,484.50 C227.45,484.16 227.00,484.36 227.00,484.94 C227.00,485.52 226.59,486.00 226.09,486.00 C225.60,486.00 224.88,483.76 224.50,481.02 C223.62,474.58 221.05,471.44 214.20,468.41 C210.26,466.67 208.96,465.64 209.72,464.88 C210.48,464.12 211.38,464.13 212.83,464.91 C213.95,465.51 217.16,466.00 219.96,466.00 C224.45,466.00 225.18,465.70 226.21,463.44 C227.11,461.47 227.10,459.82 226.18,456.39 C224.79,451.18 225.52,447.05 227.86,446.88 C233.90,446.46 237.16,448.50 240.77,454.95 C242.68,458.39 244.60,460.32 247.24,461.49 C250.86,463.08 251.10,463.06 254.05,460.96 C257.63,458.42 259.05,458.95 256.22,461.78 C254.94,463.06 254.05,465.76 253.64,469.61 C253.29,472.85 252.68,478.42 252.27,482.00 L 251.53 488.50 L 250.92 483.50 L 250.31 478.50 L 250.16 483.81 C250.06,487.06 249.61,488.88 249.00,488.50 C247.71,487.71 247.67,497.98 248.94,502.88 C250.72,509.79 252.29,521.55 252.56,530.00 C252.99,543.88 251.78,545.25 247.19,536.07 C244.76,531.21 244.32,529.30 244.75,525.48 C245.26,521.02 245.18,520.84 242.89,521.16 C241.31,521.39 240.39,522.26 240.18,523.75 C240.00,524.99 239.44,526.00 238.93,526.00 C238.42,526.00 238.00,527.34 238.00,528.99 C238.00,534.42 240.11,541.40 244.22,549.59 C248.13,557.37 248.27,557.96 247.80,565.20 C247.46,570.55 247.70,573.24 248.66,574.55 C249.40,575.56 250.00,577.42 250.00,578.69 ZM 818.75 493.92 C821.14,495.31 842.02,495.27 847.81,493.86 C853.07,492.57 860.30,487.26 862.46,483.08 C865.21,477.75 865.42,470.86 863.02,464.28 C860.93,458.55 860.55,458.14 855.11,455.71 C850.31,453.57 846.92,452.99 833.95,452.12 L 818.50 451.07 L 816.34 453.49 C814.32,455.74 814.18,456.91 814.19,471.70 C814.21,488.11 814.94,491.70 818.75,493.92 ZM 208.76 518.71 C206.32,520.60 204.36,520.77 201.07,519.39 C198.04,518.11 197.81,517.71 198.39,514.79 C199.09,511.29 202.27,507.37 205.16,506.45 C206.17,506.13 207.00,505.26 207.00,504.51 C207.00,503.77 208.38,502.86 210.07,502.49 C211.75,502.11 213.39,501.14 213.70,500.33 C214.40,498.51 219.03,496.63 220.12,497.72 C220.56,498.16 220.28,499.64 219.50,501.01 C218.72,502.38 217.64,504.47 217.10,505.65 C216.56,506.84 215.59,508.13 214.95,508.53 C214.30,508.93 212.93,511.17 211.90,513.50 C210.87,515.83 209.46,518.18 208.76,518.71 ZM 271.93 503.76 C271.80,508.67 270.85,509.76 267.50,508.79 C264.34,507.87 259.45,501.97 257.07,496.19 C255.16,491.55 256.84,490.16 260.61,493.30 C262.20,494.62 265.41,496.90 267.75,498.36 C271.12,500.47 271.99,501.59 271.93,503.76 ZM 204.00 460.06 C204.00,460.58 203.55,461.00 203.00,461.00 C202.45,461.00 202.00,460.30 202.00,459.44 C202.00,458.58 202.45,458.16 203.00,458.50 C203.55,458.84 204.00,459.54 204.00,460.06 Z" fill="rgb(82,78,226)"/>
<path d="M 260.14 602.45 C226.57,608.67 187.49,595.38 162.17,569.14 C152.51,559.13 147.85,552.40 140.93,538.50 C131.42,519.38 127.83,494.69 131.50,473.50 C139.04,429.86 171.62,394.55 214.65,383.38 C226.81,380.22 247.43,379.11 260.11,380.94 C276.57,383.30 295.44,391.30 310.11,402.11 C317.51,407.56 330.01,420.25 334.67,427.03 C337.61,431.31 346.00,446.47 346.00,447.50 C346.00,447.78 336.56,448.00 325.01,448.00 L 304.02 448.00 L 297.28 440.92 C293.57,437.02 288.42,432.28 285.84,430.38 C281.49,427.19 281.18,426.67 281.69,423.52 C282.63,417.75 281.42,415.00 277.96,415.00 C275.65,415.00 274.72,415.60 273.98,417.57 C272.24,422.12 272.83,423.49 275.19,420.38 C276.39,418.80 277.54,417.29 277.74,417.03 C278.38,416.21 279.97,419.41 279.98,421.55 C279.99,422.68 278.68,425.41 277.06,427.61 C274.72,430.78 273.79,433.65 272.52,441.55 C270.75,452.54 269.18,455.57 261.39,463.00 C256.83,467.34 256.78,467.46 257.37,472.45 C259.07,486.96 263.73,494.18 272.59,496.02 C277.57,497.05 278.02,497.36 277.41,499.33 C275.69,504.83 271.95,512.08 270.56,512.61 C267.88,513.64 260.50,508.38 256.52,502.59 C253.31,497.93 252.59,495.93 251.54,488.35 L 252.27 482.00 C252.68,478.42 253.29,472.85 253.64,469.61 C254.05,465.76 254.94,463.06 256.22,461.78 C259.05,458.95 257.63,458.42 254.05,460.96 C251.10,463.06 250.86,463.08 247.24,461.49 C244.60,460.32 242.68,458.39 240.77,454.95 C237.16,448.50 233.90,446.46 227.86,446.88 C225.52,447.05 224.79,451.18 226.18,456.39 C227.10,459.82 227.11,461.47 226.21,463.44 C225.18,465.70 224.45,466.00 219.96,466.00 C217.16,466.00 213.95,465.51 212.83,464.91 C211.38,464.13 210.48,464.12 209.72,464.88 C208.96,465.64 210.26,466.67 214.20,468.41 C221.05,471.44 223.62,474.58 224.50,481.02 C224.88,483.76 225.60,486.00 226.09,486.00 C226.59,486.00 227.00,485.52 227.00,484.94 C227.00,484.36 227.45,484.16 228.00,484.50 C228.24,484.65 228.46,484.67 228.64,484.60 C228.29,485.57 228.00,487.28 227.95,489.50 C227.85,494.76 223.97,502.05 216.25,511.48 C212.81,515.68 210.00,519.54 210.00,520.06 C210.00,521.72 211.85,521.06 212.44,519.19 C212.76,518.19 214.63,515.83 216.60,513.94 L 220.19 510.50 L 218.73 514.00 C215.92,520.73 212.60,527.00 211.85,527.00 C211.43,527.00 209.38,525.83 207.29,524.41 C204.17,522.27 202.66,521.89 198.75,522.26 C194.18,522.69 194.00,522.61 194.01,520.10 C194.02,512.14 197.75,507.09 209.14,499.62 C217.83,493.92 221.22,488.85 221.38,481.34 L 221.50 475.50 L 217.00 473.33 C214.52,472.13 210.49,470.33 208.02,469.32 C202.16,466.93 198.31,462.79 196.59,457.00 C194.61,450.32 191.19,444.00 189.57,444.00 C187.27,444.00 183.00,438.10 183.00,434.92 C183.00,431.41 183.61,431.30 186.85,434.25 C188.82,436.04 189.19,436.14 188.69,434.75 C188.29,433.62 188.56,433.00 189.45,433.00 C192.40,433.00 197.29,438.61 201.13,446.39 C203.33,450.84 205.89,455.32 206.81,456.35 C209.60,459.42 216.23,462.85 220.80,463.58 L 225.11 464.27 L 224.47 461.39 C224.12,459.80 223.42,457.20 222.92,455.60 C221.51,451.14 221.81,448.51 224.07,445.63 C225.80,443.44 226.95,443.00 230.98,443.00 C235.18,443.00 236.17,443.42 238.47,446.15 C239.93,447.88 242.46,451.95 244.09,455.19 L 247.07 461.07 L 250.16 459.29 C251.86,458.30 255.42,455.57 258.06,453.22 C263.38,448.48 265.34,443.96 266.89,432.88 C267.40,429.24 268.53,424.88 269.41,423.18 C271.42,419.29 271.42,418.40 269.43,420.05 C268.22,421.06 267.15,421.10 264.68,420.24 C245.10,413.39 218.71,417.68 200.63,430.67 C195.75,434.17 195.56,434.22 192.57,432.69 C185.60,429.14 180.00,429.70 180.00,433.95 C180.00,434.89 181.09,437.82 182.43,440.46 L 184.86 445.27 L 180.82 451.67 C171.59,466.29 168.37,478.65 169.31,495.93 C169.95,507.79 171.94,515.17 177.55,526.53 C184.04,539.67 200.49,554.90 214.34,560.58 C217.74,561.98 218.84,562.91 218.38,564.00 C216.82,567.69 217.04,569.87 219.53,575.29 C222.40,581.55 225.56,584.34 229.19,583.83 C231.28,583.53 231.53,582.91 231.80,577.25 C232.07,571.54 232.29,571.00 234.33,571.00 C235.55,571.00 237.60,571.73 238.87,572.62 C240.87,574.02 241.10,574.81 240.56,578.37 C239.23,587.22 239.37,588.15 242.30,590.36 C244.88,592.30 245.30,592.34 247.80,590.94 C252.19,588.48 253.51,584.60 253.26,574.85 L 253.05 566.20 L 260.22 564.45 C280.07,559.58 299.04,544.41 308.56,525.77 C310.45,522.08 312.00,518.81 312.00,518.52 C312.00,518.24 303.45,518.00 293.00,518.00 C280.84,518.00 274.00,517.64 274.00,516.99 C274.00,514.92 287.44,485.56 289.19,483.81 C290.86,482.14 293.43,482.00 323.13,482.00 L 355.27 482.00 L 354.75 494.75 C354.11,510.64 351.28,523.45 345.66,536.00 C329.92,571.14 298.83,595.29 260.14,602.45 ZM 255.31 600.07 C269.08,598.03 292.00,589.85 296.47,585.39 C297.17,584.69 300.39,582.70 303.62,580.96 C306.85,579.22 310.40,577.02 311.50,576.05 C312.60,575.09 314.29,574.02 315.26,573.68 C316.23,573.34 317.54,571.92 318.17,570.53 C318.80,569.14 319.73,568.00 320.23,568.00 C321.46,568.00 323.46,565.89 324.27,563.75 C324.64,562.79 325.60,562.00 326.40,562.00 C327.21,562.00 328.15,561.10 328.50,560.01 C328.85,558.91 329.66,557.44 330.32,556.73 C330.97,556.03 332.61,553.21 333.98,550.47 C335.34,547.74 336.74,545.28 337.10,545.00 C338.34,544.04 344.71,530.46 346.47,525.00 C347.45,521.97 348.83,517.70 349.53,515.50 C350.23,513.30 351.07,506.01 351.39,499.31 C351.88,489.06 351.73,486.87 350.42,485.56 C349.08,484.22 344.95,484.00 321.47,484.00 L 294.08 484.00 L 290.32 488.07 C285.91,492.83 282.52,499.33 280.48,506.93 C279.67,509.91 279.13,512.40 279.26,512.46 C283.12,514.19 288.75,515.01 297.82,515.15 C307.91,515.31 309.34,515.56 311.69,517.58 C314.17,519.71 314.24,520.01 312.96,523.17 C311.07,527.79 305.08,537.13 302.59,539.32 C301.46,540.33 300.52,541.71 300.51,542.39 C300.50,543.79 294.95,550.00 293.71,550.00 C292.70,550.00 287.34,553.79 284.04,556.84 C280.19,560.39 264.11,567.00 259.32,567.00 C256.13,567.00 255.00,569.84 255.00,577.87 C255.00,586.52 253.94,589.46 250.09,591.45 C245.02,594.08 242.11,593.45 237.82,588.81 C234.04,584.71 233.87,584.64 230.53,585.85 C227.42,586.98 226.73,586.86 223.05,584.53 C220.82,583.13 219.00,581.19 218.99,580.24 C218.99,579.28 218.09,577.15 217.00,575.50 C215.91,573.85 215.00,571.15 214.97,569.50 C214.92,565.45 213.08,563.29 208.18,561.56 C205.92,560.76 201.69,558.33 198.78,556.15 C191.58,550.75 179.31,537.91 177.45,533.84 C176.62,532.00 174.85,528.56 173.52,526.19 C172.19,523.82 170.20,518.87 169.09,515.19 C166.59,506.89 164.80,488.18 166.08,483.73 C166.58,481.96 167.00,479.16 167.01,477.51 C167.02,473.41 172.50,457.68 176.15,451.25 C179.25,445.81 179.75,442.41 178.50,435.35 C177.84,431.66 178.02,431.04 180.13,429.72 C183.59,427.55 190.52,426.92 192.70,428.57 C195.42,430.63 197.77,430.27 199.58,427.52 C201.35,424.81 216.41,417.00 219.84,417.00 C221.01,417.00 223.80,416.26 226.05,415.36 C229.47,413.99 232.67,413.82 245.71,414.31 C254.49,414.64 261.75,415.35 262.35,415.95 C264.07,417.67 267.89,417.15 269.23,415.00 C270.18,413.47 271.56,413.00 275.05,413.00 C281.40,413.00 282.98,414.47 283.68,421.02 C284.20,425.95 284.65,426.80 288.24,429.50 C292.94,433.04 296.30,436.20 300.77,441.28 L 304.05 445.00 L 321.06 445.00 C334.09,445.00 338.18,444.70 338.56,443.70 C339.18,442.09 332.91,429.67 329.22,425.20 C324.88,419.93 314.74,409.94 311.91,408.14 C310.49,407.24 307.79,405.22 305.91,403.67 C302.11,400.51 291.28,394.00 289.82,394.00 C289.31,394.00 286.10,392.62 282.69,390.93 C271.76,385.50 265.59,383.95 251.11,382.97 C239.03,382.16 236.23,382.29 226.49,384.14 C220.45,385.29 213.70,386.43 211.50,386.67 C209.30,386.92 206.15,387.73 204.50,388.48 C192.46,393.90 188.00,396.31 184.50,399.29 C182.30,401.16 178.80,403.49 176.73,404.47 C174.66,405.45 172.04,407.54 170.91,409.12 C169.79,410.71 168.35,412.00 167.72,412.00 C166.12,412.00 159.00,419.13 159.00,420.74 C159.00,421.47 157.43,423.64 155.50,425.57 C153.57,427.49 152.00,429.54 152.00,430.13 C152.00,430.71 151.07,432.38 149.94,433.84 C145.55,439.51 142.04,445.59 142.02,447.53 C142.01,448.64 141.33,450.51 140.51,451.68 C139.70,452.84 138.40,456.21 137.62,459.15 C136.85,462.09 135.48,467.02 134.58,470.10 C132.38,477.62 132.84,510.57 135.22,516.00 C136.06,517.92 137.82,522.88 139.12,527.00 C140.43,531.12 141.73,534.72 142.00,535.00 C142.79,535.79 147.00,544.63 147.00,545.51 C147.00,547.20 154.44,557.38 158.93,561.81 C161.54,564.39 163.96,567.30 164.31,568.27 C164.66,569.24 166.50,570.95 168.39,572.07 C170.28,573.18 172.05,574.70 172.34,575.43 C172.98,577.10 188.61,587.50 192.00,588.52 C193.38,588.93 197.20,590.62 200.50,592.28 C203.80,593.93 208.98,595.94 212.00,596.74 C219.75,598.79 241.91,601.91 245.50,601.46 C247.15,601.25 251.57,600.63 255.31,600.07 ZM 611.80 541.20 C604.53,543.92 602.00,544.34 591.50,544.62 C582.00,544.88 577.97,544.54 572.15,542.99 C551.81,537.58 536.12,522.89 530.60,504.07 C528.54,497.06 528.50,481.32 530.53,473.54 C535.50,454.45 551.41,439.79 573.00,434.38 C582.81,431.93 603.17,432.87 612.12,436.20 C635.94,445.05 649.11,463.83 649.19,489.08 C649.27,512.99 635.33,532.42 611.80,541.20 ZM 600.32 541.04 C609.49,540.07 611.63,539.18 624.00,531.18 C637.14,522.69 645.11,508.08 646.45,490.08 C647.10,481.26 646.26,477.11 641.73,467.00 C638.08,458.84 626.80,445.00 623.80,445.00 C623.08,445.00 621.19,443.87 619.59,442.50 C618.00,441.12 615.83,440.00 614.79,440.00 C613.74,440.00 610.94,439.11 608.55,438.02 C597.99,433.21 577.82,433.67 566.50,438.98 C563.20,440.53 558.59,442.59 556.25,443.55 C553.91,444.51 552.00,445.95 552.00,446.74 C552.00,447.53 550.65,448.68 549.00,449.31 C547.35,449.93 546.00,450.81 546.00,451.26 C546.00,451.72 544.84,453.25 543.42,454.67 C540.48,457.61 534.66,469.37 532.55,476.61 C529.66,486.60 529.65,490.12 532.50,500.60 C535.59,511.92 537.15,515.33 541.14,519.44 C542.71,521.06 544.00,522.69 544.00,523.08 C544.00,524.72 557.96,534.80 563.00,536.79 C574.49,541.34 585.51,542.59 600.32,541.04 ZM 817.69 530.00 L 817.50 543.50 L 805.50 543.83 C798.90,544.02 793.16,543.83 792.75,543.42 C792.34,543.01 792.00,518.44 792.00,488.83 L 792.00 435.00 L 822.36 435.00 C839.06,435.00 855.09,435.45 857.99,436.00 C865.91,437.50 875.61,442.68 879.60,447.55 C885.25,454.45 888.00,462.56 888.00,472.30 C888.00,476.88 887.32,482.94 886.48,485.75 C884.58,492.15 878.52,499.92 872.02,504.30 L 867.05 507.64 L 878.91 525.28 C885.42,534.98 890.51,543.16 890.21,543.45 C889.91,543.75 883.97,544.00 877.01,544.00 C875.81,544.00 874.73,544.01 873.74,544.02 C869.51,544.06 867.00,544.09 864.90,543.17 C861.34,541.61 858.98,537.32 851.45,525.77 L 842.50 512.04 L 830.25 512.02 C818.23,512.00 818.00,512.04 817.94,514.25 C817.90,515.49 817.79,522.57 817.69,530.00 ZM 812.93 539.47 C813.46,538.94 814.09,532.53 814.34,525.24 C814.62,516.81 815.23,511.43 816.01,510.49 C817.64,508.52 840.73,508.32 843.27,510.25 C845.18,511.70 849.53,517.58 850.86,520.52 C852.85,524.92 863.22,539.54 864.81,540.18 C867.40,541.22 881.31,541.09 883.00,540.01 C884.24,539.22 884.28,538.74 883.23,537.28 C882.53,536.30 881.32,534.15 880.54,532.50 C879.76,530.85 877.31,527.25 875.10,524.50 C867.93,515.57 867.23,514.50 866.21,510.78 L 866.15 510.59 C865.81,509.36 865.57,508.50 865.66,507.67 C865.88,505.73 867.92,503.98 874.77,498.01 C879.05,494.28 882.29,490.60 882.64,489.08 C882.97,487.66 883.92,484.34 884.75,481.70 C885.83,478.27 886.07,475.02 885.60,470.38 C884.82,462.80 880.25,450.88 877.88,450.26 C876.98,450.02 875.75,448.74 875.14,447.42 C874.54,446.09 873.54,445.00 872.93,445.00 C872.32,445.00 868.91,443.65 865.34,442.00 C861.78,440.35 857.74,439.00 856.36,439.00 C854.99,439.00 852.93,438.50 851.79,437.89 C850.39,437.14 841.11,436.81 823.62,436.90 C801.74,437.01 797.30,437.27 796.02,438.55 C794.71,439.86 794.45,446.91 794.16,489.53 L 793.81 538.99 L 796.16 539.99 C799.02,541.20 811.59,540.81 812.93,539.47 ZM 486.34 542.60 C477.14,545.17 458.04,545.42 449.67,543.10 C418.06,534.31 400.96,507.08 407.51,475.94 C411.72,455.96 427.30,440.42 448.60,434.98 C458.38,432.47 476.40,432.28 485.36,434.58 C493.95,436.78 503.42,441.64 508.87,446.63 L 513.50 450.88 L 498.18 466.30 L 493.19 462.64 C483.83,455.77 479.83,454.51 467.50,454.54 C457.38,454.58 456.03,454.81 450.65,457.50 C443.32,461.16 436.76,468.35 433.97,475.80 C431.00,483.72 431.44,496.33 434.94,503.46 C440.08,513.91 448.07,520.07 459.63,522.49 C466.77,523.98 475.76,523.38 482.75,520.94 L 486.00 519.80 L 486.00 488.00 L 510.70 488.00 L 510.51 509.64 C510.34,529.66 510.19,531.40 508.42,532.76 C505.22,535.22 492.54,540.88 486.34,542.60 ZM 734.50 543.00 C720.37,546.61 702.80,545.02 691.13,539.06 C689.07,538.02 685.05,535.05 682.19,532.48 C676.12,527.02 670.76,516.83 669.08,507.57 C668.45,504.11 668.00,487.75 668.00,468.32 L 668.00 435.00 L 694.00 435.00 L 694.01 468.75 C694.01,487.75 694.44,504.04 694.99,506.03 C698.04,516.99 706.09,523.21 717.33,523.30 C728.64,523.38 734.95,520.13 739.55,511.82 L 742.50 506.50 L 742.81 470.75 L 743.12 435.00 L 767.74 435.00 L 768.42 441.84 C768.79,445.60 768.82,461.24 768.48,476.59 C767.67,513.77 766.31,519.50 755.65,530.77 C749.11,537.70 744.24,540.51 734.50,543.00 ZM 738.51 538.65 C741.24,537.19 744.03,536.00 744.70,536.00 C745.36,536.00 748.25,533.86 751.11,531.25 C756.69,526.15 763.06,514.27 764.38,506.50 C765.31,500.96 765.80,448.77 764.97,443.27 C764.59,440.81 763.66,438.40 762.89,437.91 C762.13,437.43 758.52,437.02 754.87,437.02 C749.91,437.00 747.90,437.42 746.87,438.65 C745.78,439.97 745.47,446.59 745.36,470.79 C745.20,504.05 744.92,507.40 741.84,513.81 C736.99,523.88 721.75,528.39 707.24,524.07 C703.26,522.89 700.00,521.43 700.00,520.83 C700.00,520.23 698.49,518.07 696.65,516.03 C691.98,510.86 691.00,503.07 691.00,471.11 C691.00,437.68 690.28,435.30 680.50,436.52 C672.73,437.49 672.30,437.76 671.18,442.28 C669.83,447.75 669.69,500.07 671.00,507.02 C671.55,509.92 673.55,515.51 675.44,519.43 C678.24,525.25 679.93,527.36 684.68,530.88 C697.69,540.53 702.60,541.89 723.01,541.50 C732.25,541.32 734.13,540.98 738.51,538.65 ZM 482.93 540.52 C489.52,538.81 503.90,531.72 505.75,529.27 C507.48,526.99 507.52,493.92 505.80,492.20 C504.14,490.54 491.09,490.59 490.45,492.26 C490.19,492.95 489.61,499.24 489.17,506.23 C488.25,520.87 487.74,521.85 479.68,524.56 C469.30,528.04 451.23,525.35 443.50,519.18 C438.09,514.85 432.38,507.03 430.67,501.63 C427.82,492.57 428.75,478.87 432.82,470.00 C434.94,465.39 442.75,457.99 448.72,454.94 C453.09,452.71 454.65,452.50 467.06,452.50 L 480.61 452.50 L 488.75 456.75 C493.23,459.09 497.39,461.00 497.98,461.00 C499.34,461.00 505.40,455.01 506.22,452.86 C507.19,450.33 503.37,445.12 499.26,443.38 C490.73,439.75 489.33,439.14 485.50,437.36 C482.16,435.81 479.10,435.51 467.00,435.55 C451.60,435.60 443.84,437.16 437.44,441.49 C435.82,442.58 433.15,443.93 431.50,444.49 C429.85,445.05 428.06,446.51 427.51,447.75 C426.97,448.99 426.03,450.00 425.42,450.00 C423.44,450.00 416.41,459.33 412.98,466.50 C409.94,472.85 409.59,474.54 409.19,484.68 C408.80,494.73 409.02,496.68 411.40,504.05 C412.85,508.56 415.04,513.64 416.27,515.35 C417.50,517.06 418.95,519.18 419.50,520.07 C424.36,527.91 431.03,533.58 439.59,537.14 C450.24,541.57 472.24,543.29 482.93,540.52 ZM 578.50 525.04 C568.78,521.51 557.02,513.42 557.78,510.79 C557.93,510.26 556.65,507.53 554.93,504.73 C551.99,499.95 551.80,499.08 551.92,490.61 C551.98,485.64 552.52,479.77 553.12,477.55 C556.22,466.03 563.84,457.43 574.00,454.00 C586.39,449.82 605.82,452.09 611.69,458.42 C612.92,459.75 614.75,461.44 615.75,462.17 C619.19,464.69 623.73,472.94 624.87,478.75 C626.53,487.18 625.04,500.02 621.63,506.75 C620.16,509.64 618.60,512.00 618.14,512.00 C617.69,512.00 616.83,513.09 616.22,514.42 C614.42,518.37 603.40,523.85 593.85,525.53 C593.36,525.61 592.90,525.70 592.46,525.77 C587.65,526.62 585.71,526.97 583.86,526.71 C582.44,526.52 581.07,525.97 578.50,525.04 ZM 581.10 522.46 C590.95,525.19 603.88,522.22 611.84,515.41 C620.57,507.93 625.28,494.17 623.02,482.70 C619.64,465.43 609.03,455.53 592.57,454.28 C577.13,453.12 564.06,460.13 557.73,472.98 C554.39,479.74 554.03,494.46 557.00,502.00 C561.16,512.56 568.82,519.06 581.10,522.46 ZM 818.75 493.92 C814.94,491.70 814.21,488.11 814.19,471.70 C814.18,456.91 814.32,455.74 816.34,453.49 L 818.50 451.07 L 833.95 452.12 C846.92,452.99 850.31,453.57 855.11,455.71 C860.55,458.14 860.93,458.55 863.02,464.28 C865.42,470.86 865.21,477.75 862.46,483.08 C860.30,487.26 853.07,492.57 847.81,493.86 C842.02,495.27 821.14,495.31 818.75,493.92 ZM 817.85 490.32 C818.04,490.77 825.24,490.99 833.85,490.82 C847.39,490.54 850.04,490.22 853.50,488.41 C863.77,483.05 865.14,465.68 855.84,458.73 C852.21,456.02 840.68,454.65 828.55,455.47 L 818.09 456.19 L 817.80 472.84 C817.63,482.00 817.66,489.87 817.85,490.32 ZM 250.00 578.69 C250.00,577.42 249.40,575.56 248.66,574.55 C247.70,573.24 247.46,570.55 247.80,565.20 C248.27,557.96 248.13,557.37 244.22,549.59 C240.11,541.40 238.00,534.42 238.00,528.99 C238.00,527.34 238.42,526.00 238.93,526.00 C239.44,526.00 240.00,524.99 240.18,523.75 C240.39,522.26 241.31,521.39 242.89,521.16 C245.18,520.84 245.26,521.02 244.75,525.48 C244.32,529.30 244.76,531.21 247.19,536.07 C251.78,545.25 252.99,543.88 252.56,530.00 C252.29,521.55 250.72,509.79 248.94,502.88 C247.67,497.98 247.71,487.71 249.00,488.50 C249.59,488.86 250.03,487.20 250.14,484.18 L 250.11 487.38 C250.05,492.27 250.44,497.90 250.97,499.88 C258.36,527.30 258.88,541.97 252.70,548.75 C251.57,549.99 250.34,551.00 249.96,551.00 C248.13,551.00 243.41,537.05 240.64,523.50 C240.42,522.40 240.18,523.75 240.12,526.50 C239.98,532.91 241.22,537.30 246.49,549.00 C250.47,557.81 250.82,559.31 251.41,569.75 C251.97,579.78 251.82,581.44 250.04,584.91 C247.77,589.37 246.43,590.11 243.25,588.69 C240.61,587.50 240.46,586.26 242.49,582.36 C243.32,580.79 243.99,578.73 243.99,577.78 C244.00,575.11 238.25,569.21 234.92,568.48 C230.17,567.44 228.77,569.31 229.56,575.65 C230.11,580.05 229.94,581.08 228.60,581.60 C226.49,582.41 224.32,580.55 221.93,575.86 C219.71,571.50 219.43,566.36 221.29,564.08 C221.99,563.21 223.68,559.12 225.04,555.00 C226.39,550.88 227.89,547.22 228.37,546.87 C228.84,546.52 227.94,543.15 226.37,539.37 C223.75,533.10 223.51,531.50 223.58,521.00 C223.65,510.75 224.01,508.53 226.83,500.56 C228.65,495.45 229.99,489.67 229.98,487.06 C229.98,484.28 229.53,483.36 229.06,483.82 L 229.06 483.81 C229.10,483.09 229.60,483.62 230.17,485.00 C231.57,488.33 231.36,493.40 229.63,498.40 C224.63,512.85 224.10,527.44 228.29,535.50 C230.52,539.80 231.29,550.52 229.46,551.80 C228.09,552.75 223.97,565.85 223.99,569.19 C224.00,572.76 225.78,573.74 226.56,570.61 C227.49,566.92 230.42,564.62 232.68,565.83 C233.69,566.37 235.71,566.59 237.16,566.31 C239.23,565.91 239.95,566.27 240.49,567.96 C240.86,569.14 242.26,570.53 243.59,571.03 C245.56,571.78 246.00,572.65 246.00,575.81 C246.00,577.93 246.30,579.97 246.67,580.33 C248.13,581.79 250.00,580.87 250.00,578.69 ZM 208.76 518.71 C209.46,518.18 210.87,515.83 211.90,513.50 C212.93,511.17 214.30,508.93 214.95,508.53 C215.59,508.13 216.56,506.84 217.10,505.65 C217.64,504.47 218.72,502.38 219.50,501.01 C220.28,499.64 220.56,498.16 220.12,497.72 C219.03,496.63 214.40,498.51 213.70,500.33 C213.39,501.14 211.75,502.11 210.07,502.49 C208.38,502.86 207.00,503.77 207.00,504.51 C207.00,505.26 206.17,506.13 205.16,506.45 C202.27,507.37 199.09,511.29 198.39,514.79 C197.81,517.71 198.04,518.11 201.07,519.39 C204.36,520.77 206.32,520.60 208.76,518.71 ZM 271.93 503.76 C271.99,501.59 271.12,500.47 267.75,498.36 C265.41,496.90 262.20,494.62 260.61,493.30 C256.84,490.16 255.16,491.55 257.07,496.19 C259.45,501.97 264.34,507.87 267.50,508.79 C270.85,509.76 271.80,508.67 271.93,503.76 ZM 204.00 460.06 C204.00,459.54 203.55,458.84 203.00,458.50 C202.45,458.16 202.00,458.58 202.00,459.44 C202.00,460.30 202.45,461.00 203.00,461.00 C203.55,461.00 204.00,460.58 204.00,460.06 ZM 250.30 479.12 L 250.31 478.50 L 250.92 483.50 L 251.21 485.86 Z" fill="rgb(85,80,193)"/>
<path d="M 250.28 559.04 C249.63,556.15 248.55,553.55 246.49,549.00 C241.22,537.30 239.98,532.91 240.12,526.50 C240.18,523.75 240.42,522.40 240.64,523.50 C243.41,537.05 248.13,551.00 249.96,551.00 C250.34,551.00 251.57,549.99 252.70,548.75 C253.48,547.90 254.15,546.92 254.72,545.81 C252.98,549.49 250.73,552.11 249.45,551.62 C248.36,551.20 248.35,551.76 249.41,554.81 C249.69,555.60 249.99,557.12 250.28,559.04 ZM 227.95 489.50 C228.00,487.28 228.29,485.57 228.64,484.60 C228.88,484.50 229.04,484.22 229.06,483.82 C229.53,483.36 229.98,484.28 229.98,487.06 C229.99,488.87 229.35,492.19 228.35,495.76 C229.54,491.25 228.81,490.80 226.21,496.50 C223.73,501.95 221.23,506.34 218.67,509.77 C217.96,510.72 218.16,510.88 219.42,510.39 C219.78,510.25 219.99,510.33 220.01,510.67 L 216.60 513.94 C214.63,515.83 212.76,518.19 212.44,519.19 C211.85,521.06 210.00,521.72 210.00,520.06 C210.00,519.54 212.81,515.68 216.25,511.48 C223.97,502.05 227.85,494.76 227.95,489.50 ZM 250.30 479.12 L 251.21 485.86 L 251.53 488.50 L 251.54 488.35 C252.37,494.34 252.99,496.85 254.80,499.93 C253.72,498.16 253.00,496.73 253.00,496.30 C253.00,495.65 252.48,494.80 251.84,494.40 C250.65,493.67 250.97,498.50 252.35,505.15 C251.92,503.45 251.46,501.69 250.97,499.88 C250.44,497.90 250.05,492.27 250.11,487.38 L 250.14 484.18 C250.15,484.06 250.15,483.93 250.16,483.81 ZM 219.99 510.97 C219.85,512.00 218.84,514.32 216.83,518.37 C216.68,518.68 216.53,518.99 216.37,519.29 C217.15,517.64 217.96,515.84 218.73,514.00 ZM 256.11 523.40 C255.60,519.90 254.88,516.04 253.93,511.78 C253.95,511.85 253.97,511.93 253.99,512.00 C254.90,515.38 255.62,519.38 256.11,523.40 ZM 255.61 543.67 C256.03,542.45 256.35,541.10 256.58,539.62 C256.44,540.79 256.25,541.79 256.00,542.56 C255.88,542.94 255.75,543.31 255.61,543.67 ZM 256.57 502.67 C258.34,505.21 260.75,507.65 263.13,509.49 C260.76,507.67 258.36,505.26 256.66,502.79 ZM 225.57 504.28 C224.78,506.75 224.31,508.72 224.03,510.98 C224.32,508.62 224.79,506.65 225.57,504.28 ZM 223.63 517.43 C223.61,518.51 223.59,519.69 223.58,521.00 C223.56,524.66 223.57,527.24 223.71,529.31 C223.57,527.24 223.55,524.66 223.58,521.00 C223.59,519.70 223.60,518.52 223.63,517.43 ZM 211.83 527.00 C211.83,527.00 211.82,527.00 211.82,527.00 C211.42,527.00 209.38,525.83 207.29,524.41 C209.36,525.82 211.38,526.97 211.83,527.00 Z" fill="rgb(164,163,215)"/>
<path d="M 0.00 508.00 L 0.00 0.00 L 516.00 0.00 L 1032.00 0.00 L 1032.00 508.00 L 1032.00 1016.00 L 516.00 1016.00 L 0.00 1016.00 L 0.00 508.00 ZM 260.14 602.45 C298.83,595.29 329.92,571.14 345.66,536.00 C351.28,523.45 354.11,510.64 354.75,494.75 L 355.27 482.00 L 323.13 482.00 C293.43,482.00 290.86,482.14 289.19,483.81 C287.44,485.56 274.00,514.92 274.00,516.99 C274.00,517.64 280.84,518.00 293.00,518.00 C303.45,518.00 312.00,518.24 312.00,518.52 C312.00,518.81 310.45,522.08 308.56,525.77 C299.04,544.41 280.07,559.58 260.22,564.45 L 253.05 566.20 L 253.26 574.85 C253.51,584.60 252.19,588.48 247.80,590.94 C245.30,592.34 244.88,592.30 242.30,590.36 C239.37,588.15 239.23,587.22 240.56,578.37 C241.10,574.81 240.87,574.02 238.87,572.62 C237.60,571.73 235.55,571.00 234.33,571.00 C232.29,571.00 232.07,571.54 231.80,577.25 C231.53,582.91 231.28,583.53 229.19,583.83 C225.56,584.34 222.40,581.55 219.53,575.29 C217.04,569.87 216.82,567.69 218.38,564.00 C218.84,562.91 217.74,561.98 214.34,560.58 C200.49,554.90 184.04,539.67 177.55,526.53 C171.94,515.17 169.95,507.79 169.31,495.93 C168.37,478.65 171.59,466.29 180.82,451.67 L 184.86 445.27 L 182.43 440.46 C181.09,437.82 180.00,434.89 180.00,433.95 C180.00,429.70 185.60,429.14 192.57,432.69 C195.56,434.22 195.75,434.17 200.63,430.67 C218.71,417.68 245.10,413.39 264.68,420.24 C267.15,421.10 268.22,421.06 269.43,420.05 C271.42,418.40 271.42,419.29 269.41,423.18 C268.53,424.88 267.40,429.24 266.89,432.88 C265.34,443.96 263.38,448.48 258.06,453.22 C255.42,455.57 251.86,458.30 250.16,459.29 L 247.07 461.07 L 244.09 455.19 C242.46,451.95 239.93,447.88 238.47,446.15 C236.17,443.42 235.18,443.00 230.98,443.00 C226.95,443.00 225.80,443.44 224.07,445.63 C221.81,448.51 221.51,451.14 222.92,455.60 C223.42,457.20 224.12,459.80 224.47,461.39 L 225.11 464.27 L 220.80 463.58 C216.23,462.85 209.60,459.42 206.81,456.35 C205.89,455.32 203.33,450.84 201.13,446.39 C197.29,438.61 192.40,433.00 189.45,433.00 C188.56,433.00 188.29,433.62 188.69,434.75 C189.19,436.14 188.82,436.04 186.85,434.25 C183.61,431.30 183.00,431.41 183.00,434.92 C183.00,438.10 187.27,444.00 189.57,444.00 C191.19,444.00 194.61,450.32 196.59,457.00 C198.31,462.79 202.16,466.93 208.02,469.32 C210.49,470.33 214.52,472.13 217.00,473.33 L 221.50 475.50 L 221.38 481.34 C221.22,488.85 217.83,493.92 209.14,499.62 C197.75,507.09 194.02,512.14 194.01,520.10 C194.00,522.61 194.18,522.69 198.75,522.26 C202.66,521.89 204.17,522.27 207.29,524.41 C209.38,525.83 211.42,527.00 211.82,527.00 C212.22,527.00 214.48,523.12 216.83,518.37 C220.00,511.99 220.67,509.91 219.42,510.39 C218.16,510.88 217.96,510.72 218.67,509.77 C221.23,506.34 223.73,501.95 226.21,496.50 C229.74,488.75 229.82,492.38 226.33,502.07 C224.05,508.41 223.65,511.18 223.58,521.00 C223.51,531.49 223.75,533.10 226.37,539.37 C227.94,543.15 228.84,546.52 228.37,546.87 C227.89,547.22 226.39,550.88 225.04,555.00 C223.68,559.12 221.99,563.21 221.29,564.08 C219.43,566.36 219.71,571.50 221.93,575.86 C224.32,580.55 226.49,582.41 228.60,581.60 C229.94,581.08 230.11,580.05 229.56,575.65 C228.77,569.31 230.17,567.44 234.92,568.48 C238.25,569.21 244.00,575.11 243.99,577.78 C243.99,578.73 243.32,580.79 242.49,582.36 C240.46,586.26 240.61,587.50 243.25,588.69 C246.43,590.11 247.77,589.37 250.04,584.91 C251.83,581.42 251.97,579.82 251.37,569.75 C251.00,563.56 250.12,556.84 249.41,554.81 C248.35,551.76 248.36,551.20 249.45,551.62 C251.09,552.25 254.30,547.81 256.00,542.56 C257.69,537.35 256.68,521.96 253.99,512.00 C251.34,502.18 250.27,493.43 251.84,494.40 C252.48,494.80 253.00,495.65 253.00,496.30 C253.00,496.95 254.64,499.87 256.66,502.79 C260.51,508.38 267.93,513.63 270.56,512.61 C271.95,512.08 275.69,504.83 277.41,499.33 C278.02,497.36 277.57,497.05 272.59,496.02 C263.73,494.18 259.07,486.96 257.37,472.45 C256.78,467.46 256.83,467.34 261.39,463.00 C269.18,455.57 270.75,452.54 272.52,441.55 C273.79,433.65 274.72,430.78 277.06,427.61 C278.68,425.41 279.99,422.68 279.98,421.55 C279.97,419.41 278.38,416.21 277.74,417.03 C277.54,417.29 276.39,418.80 275.19,420.38 C272.83,423.49 272.24,422.12 273.98,417.57 C274.72,415.60 275.65,415.00 277.96,415.00 C281.42,415.00 282.63,417.75 281.69,423.52 C281.18,426.67 281.49,427.19 285.84,430.38 C288.42,432.28 293.57,437.02 297.28,440.92 L 304.02 448.00 L 325.01 448.00 C336.56,448.00 346.00,447.78 346.00,447.50 C346.00,446.47 337.61,431.31 334.67,427.03 C330.01,420.25 317.51,407.56 310.11,402.11 C295.44,391.30 276.57,383.30 260.11,380.94 C247.43,379.11 226.81,380.22 214.65,383.38 C171.62,394.55 139.04,429.86 131.50,473.50 C127.83,494.69 131.42,519.38 140.93,538.50 C147.85,552.40 152.51,559.13 162.17,569.14 C187.49,595.38 226.57,608.67 260.14,602.45 ZM 486.34 542.60 C492.54,540.88 505.22,535.22 508.42,532.76 C510.19,531.40 510.34,529.66 510.51,509.64 L 510.70 488.00 L 498.35 488.00 L 486.00 488.00 L 486.00 503.90 L 486.00 519.80 L 482.75 520.94 C475.76,523.38 466.77,523.98 459.63,522.49 C448.07,520.07 440.08,513.91 434.94,503.46 C431.44,496.33 431.00,483.72 433.97,475.80 C436.76,468.35 443.32,461.16 450.65,457.50 C456.03,454.81 457.38,454.58 467.50,454.54 C479.83,454.51 483.83,455.77 493.19,462.64 L 498.18 466.30 L 505.84 458.59 L 513.50 450.88 L 508.87 446.63 C503.42,441.64 493.95,436.78 485.36,434.58 C476.40,432.28 458.38,432.47 448.60,434.98 C427.30,440.42 411.72,455.96 407.51,475.94 C400.96,507.08 418.06,534.31 449.67,543.10 C458.04,545.42 477.14,545.17 486.34,542.60 ZM 611.80 541.20 C635.33,532.42 649.27,512.99 649.19,489.08 C649.11,463.83 635.94,445.05 612.12,436.20 C603.17,432.87 582.81,431.93 573.00,434.38 C551.41,439.79 535.50,454.45 530.53,473.54 C528.50,481.32 528.54,497.06 530.60,504.07 C536.12,522.89 551.81,537.58 572.15,542.99 C577.97,544.54 582.00,544.88 591.50,544.62 C602.00,544.34 604.53,543.92 611.80,541.20 ZM 734.50 543.00 C744.24,540.51 749.11,537.70 755.65,530.77 C766.31,519.50 767.67,513.77 768.48,476.59 C768.82,461.24 768.79,445.60 768.42,441.84 L 767.74 435.00 L 755.43 435.00 L 743.12 435.00 L 742.81 470.75 L 742.50 506.50 L 739.55 511.82 C734.95,520.13 728.64,523.38 717.33,523.30 C706.09,523.21 698.04,516.99 694.99,506.03 C694.44,504.04 694.01,487.75 694.01,468.75 L 694.00 435.00 L 681.00 435.00 L 668.00 435.00 L 668.00 468.32 C668.00,487.75 668.45,504.11 669.08,507.57 C670.76,516.83 676.12,527.02 682.19,532.48 C685.05,535.05 689.07,538.02 691.13,539.06 C702.80,545.02 720.37,546.61 734.50,543.00 ZM 817.69 530.00 C817.79,522.57 817.90,515.49 817.94,514.25 C818.00,512.04 818.23,512.00 830.25,512.02 L 842.50 512.04 L 851.45 525.77 C864.45,545.72 862.05,544.00 877.01,544.00 C883.97,544.00 889.91,543.75 890.21,543.45 C890.51,543.16 885.42,534.98 878.91,525.28 L 867.05 507.64 L 872.02 504.30 C878.52,499.92 884.58,492.15 886.48,485.75 C887.32,482.94 888.00,476.88 888.00,472.30 C888.00,462.56 885.25,454.45 879.60,447.55 C875.61,442.68 865.91,437.50 857.99,436.00 C855.09,435.45 839.06,435.00 822.36,435.00 L 792.00 435.00 L 792.00 488.83 C792.00,518.44 792.34,543.01 792.75,543.42 C793.16,543.83 798.90,544.02 805.50,543.83 L 817.50 543.50 L 817.69 530.00 ZM 581.10 522.46 C568.82,519.06 561.16,512.56 557.00,502.00 C554.03,494.46 554.39,479.74 557.73,472.98 C564.06,460.13 577.13,453.12 592.57,454.28 C609.03,455.53 619.64,465.43 623.02,482.70 C625.28,494.17 620.57,507.93 611.84,515.41 C603.88,522.22 590.95,525.19 581.10,522.46 ZM 817.85 490.32 C817.66,489.87 817.63,482.00 817.80,472.84 L 818.09 456.19 L 828.55 455.47 C840.68,454.65 852.21,456.02 855.84,458.73 C865.14,465.68 863.77,483.05 853.50,488.41 C850.04,490.22 847.39,490.54 833.85,490.82 C825.24,490.99 818.04,490.77 817.85,490.32 Z" fill="rgb(254,254,254)"/>
</g>
</svg>